<?xml version="1.0" standalone="no"?>
<!DOCTYPE svg PUBLIC "-//W3C//DTD SVG 20010904//EN"
 "http://www.w3.org/TR/2001/REC-SVG-20010904/DTD/svg10.dtd">
<svg version="1.0" xmlns="http://www.w3.org/2000/svg"
 width="641.000000pt" height="1000.000000pt" viewBox="0 0 641.000000 1000.000000"
 preserveAspectRatio="xMidYMid meet">

<g transform="translate(0.000000,1000.000000) scale(0.100000,-0.100000)"
fill="#000000" stroke="none">
<path d="M10 4995 l0 -4995 3200 0 3200 0 0 4995 0 4995 -3200 0 -3200 0 0
-4995z m826 4042 c91 -46 168 -151 195 -264 27 -113 8 -308 -40 -400 -30 -60
-94 -126 -152 -158 -47 -25 -67 -30 -149 -33 -125 -5 -192 18 -265 92 -85 86
-125 197 -125 346 0 226 109 396 284 441 17 5 69 7 116 5 67 -3 96 -9 136 -29z
m1115 -174 l-2 -193 213 0 213 0 0 192 0 193 38 3 37 3 0 -436 0 -436 -37 3
-38 3 -2 199 -2 199 -208 -1 -208 0 -1 -199 -2 -198 -36 -3 -36 -3 0 436 0
436 36 -3 36 -3 -1 -192z m1197 -65 c57 -38 99 -128 108 -230 l7 -78 -207 0
-206 0 0 -28 c0 -53 29 -128 64 -164 53 -54 137 -64 221 -24 28 12 56 30 64
39 21 27 31 20 31 -21 0 -47 -18 -66 -89 -93 -69 -26 -169 -26 -220 0 -93 48
-142 151 -144 301 0 109 21 178 75 244 71 87 208 111 296 54z m762 10 c36 -19
51 -35 75 -82 l30 -59 3 -239 3 -238 -41 0 -40 0 0 225 c1 204 -1 229 -19 270
-21 47 -63 75 -113 75 -45 0 -107 -40 -136 -88 -27 -47 -27 -48 -30 -264 l-4
-218 -34 0 -34 0 0 315 0 315 35 0 c34 0 35 -1 35 -42 l0 -42 33 31 c17 17 46
38 62 46 45 24 122 21 175 -5z m708 16 c19 -5 22 -13 22 -50 l0 -45 -29 15
c-59 31 -128 -14 -161 -104 -9 -23 -15 -107 -18 -242 l-4 -208 -34 0 -34 0 0
316 0 315 33 -3 c30 -3 32 -5 35 -47 l3 -44 19 31 c32 53 106 82 168 66z m367
-13 c3 -6 43 -121 90 -257 70 -208 85 -244 93 -223 5 13 46 129 92 257 l84
233 35 -3 c26 -2 35 -7 33 -18 -7 -37 -285 -769 -305 -805 -32 -57 -80 -87
-137 -83 l-45 3 -3 42 c-3 42 -3 43 22 33 32 -12 80 4 99 33 8 12 28 59 45
103 l31 81 -104 298 c-58 164 -105 302 -105 307 0 11 67 10 75 -1z m-4385
-1936 l0 -385 95 0 95 0 0 -35 0 -35 -230 0 -230 0 0 35 0 35 98 0 97 0 -2
337 c-2 186 -3 339 -3 340 0 1 -44 -14 -97 -33 -54 -18 -99 -34 -101 -34 -2 0
-2 17 0 37 l3 37 130 42 c72 23 133 43 138 43 4 1 7 -172 7 -384z m856 346
c94 -43 143 -152 151 -341 9 -192 -23 -321 -99 -398 -44 -46 -82 -63 -148 -69
-179 -17 -280 129 -280 402 1 215 47 332 158 397 58 35 153 38 218 9z m794 -3
c56 -29 104 -92 127 -166 14 -45 18 -92 18 -227 -1 -187 -12 -237 -74 -323
-76 -104 -245 -123 -340 -36 -96 86 -137 307 -95 511 26 127 82 212 164 247
54 23 147 20 200 -6z m-412 -1532 l2 -306 -30 0 -30 0 0 309 0 310 28 -3 27
-3 3 -307z m3530 5 l-3 -306 -27 -3 c-24 -3 -28 0 -28 22 0 31 -4 32 -32 6
-51 -47 -170 -51 -233 -9 -51 35 -85 108 -85 183 1 134 84 223 211 225 49 1
119 -22 119 -39 0 -6 5 -10 10 -10 6 0 10 46 10 118 l0 119 30 0 30 0 -2 -306z
m-4789 270 c15 -4 27 -17 32 -34 8 -31 1 -33 -71 -16 -92 21 -180 -21 -180
-86 0 -46 27 -75 123 -128 134 -76 168 -121 153 -202 -20 -105 -171 -155 -313
-105 -28 10 -33 17 -33 45 l0 34 43 -19 c52 -24 155 -27 196 -5 35 18 51 59
39 103 -9 34 -25 47 -155 121 -76 44 -106 76 -117 127 -13 61 36 134 107 161
35 13 137 15 176 4z m3191 -101 l0 -60 58 0 c54 0 57 -1 58 -25 2 -24 0 -25
-57 -25 l-59 0 0 -150 c0 -149 0 -150 25 -166 21 -14 31 -15 51 -5 36 16 40
14 39 -16 0 -23 -6 -29 -38 -36 -48 -12 -83 -3 -113 30 -23 25 -24 31 -24 184
l0 159 -40 0 c-36 0 -40 3 -40 25 0 23 4 25 40 25 l40 0 0 54 c0 44 4 55 18
59 40 11 42 8 42 -53z m-2453 -79 c46 -34 69 -76 79 -149 l7 -52 -167 0 -166
0 0 -27 c0 -36 31 -87 66 -110 42 -27 130 -23 188 10 l47 26 -3 -32 c-4 -47
-59 -72 -158 -72 -67 0 -79 3 -117 30 -57 41 -83 98 -83 183 0 82 24 138 74
178 44 35 65 42 137 43 47 1 63 -4 96 -28z m1220 3 c39 -29 70 -89 78 -151 l7
-53 -166 0 -166 0 0 -29 c0 -38 38 -92 80 -114 45 -24 116 -17 176 17 l45 25
-3 -32 c-2 -26 -10 -36 -40 -50 -50 -25 -136 -33 -184 -17 -50 16 -110 73
-125 119 -18 54 -14 142 9 193 19 45 64 87 112 107 41 17 146 8 177 -15z m742
15 c25 -9 31 -16 31 -41 0 -25 -3 -29 -17 -23 -110 45 -213 15 -249 -71 -32
-77 -3 -188 58 -220 42 -23 123 -23 167 -1 44 22 43 22 39 -15 -3 -29 -8 -34
-48 -46 -110 -33 -219 7 -267 98 -21 38 -24 56 -21 117 3 60 8 79 33 115 56
80 180 120 274 87z m1248 -15 c39 -29 70 -89 78 -151 l7 -53 -166 0 -166 0 0
-29 c0 -38 38 -92 80 -114 45 -23 117 -16 178 18 l43 24 -3 -32 c-2 -26 -10
-36 -40 -50 -50 -25 -136 -33 -184 -17 -39 12 -97 59 -115 92 -5 10 -14 40
-19 68 -19 103 30 212 113 251 56 26 154 22 194 -7z m-1593 -734 c-12 -5 -31
-24 -44 -44 -22 -37 -30 -44 -30 -26 0 17 62 80 79 79 12 0 10 -3 -5 -9z m61
0 c18 -8 17 -9 -7 -9 -16 -1 -28 4 -28 9 0 12 8 12 35 0z m87 -38 c47 -24 100
-64 73 -55 -11 3 -31 14 -45 24 -14 9 -41 24 -60 32 -19 9 -28 16 -20 16 9 1
32 -7 52 -17z m-282 -1 c0 -5 3 -16 6 -25 3 -9 1 -16 -5 -16 -6 0 -11 9 -11
19 0 14 -5 18 -19 14 -10 -3 -22 0 -25 6 -5 7 4 11 23 11 17 0 31 -4 31 -9z
m-70 -25 c0 -3 -4 -8 -10 -11 -5 -3 -10 -1 -10 4 0 6 5 11 10 11 6 0 10 -2 10
-4z m-60 -26 c0 -5 -10 -10 -22 -9 -22 0 -22 1 -3 9 11 5 21 9 23 9 1 1 2 -3
2 -9z m174 -8 c-7 -4 -14 -16 -17 -27 -4 -15 -5 -14 -6 8 -1 20 4 27 17 27 11
0 13 -3 6 -8z m272 -45 c-20 -20 -36 -32 -36 -28 0 11 62 72 67 67 3 -3 -11
-20 -31 -39z m183 1 c39 -18 71 -37 71 -41 0 -4 -8 -4 -17 1 -108 57 -163 70
-163 41 0 -5 -4 -9 -9 -9 -6 0 -9 9 -8 20 2 30 44 26 126 -12z m-700 -4 c-6
-8 -17 -14 -23 -14 -6 0 -5 4 3 9 7 5 11 14 7 20 -5 7 -1 9 9 5 12 -5 13 -9 4
-20z m307 -15 c97 -41 114 -50 114 -59 0 -19 20 -9 33 16 9 17 17 23 21 15 4
-6 3 -11 -2 -11 -16 0 -23 -47 -12 -76 6 -15 8 -29 5 -32 -8 -8 -14 1 -18 26
-4 26 -35 62 -54 62 -7 0 -13 4 -13 8 0 5 -25 17 -55 27 -30 11 -55 23 -55 27
0 4 -7 8 -15 8 -21 0 -19 -33 5 -82 11 -23 20 -49 20 -58 0 -9 4 -20 8 -25 5
-6 14 -30 21 -55 7 -25 17 -53 22 -62 5 -10 9 -23 9 -30 -1 -16 -24 33 -43 92
-8 25 -29 82 -45 126 -22 60 -27 85 -19 93 15 15 17 14 73 -10z m-2282 1 c20
-7 26 -17 26 -39 l0 -29 -47 14 c-58 18 -105 18 -146 1 -44 -19 -59 -40 -59
-83 0 -46 26 -73 119 -124 135 -75 175 -128 153 -208 -27 -102 -172 -149 -309
-101 -26 9 -31 16 -31 44 l0 34 46 -21 c37 -16 62 -19 117 -16 61 3 72 7 93
31 32 38 32 87 -1 120 -14 14 -64 47 -111 73 -121 68 -154 112 -140 188 15 79
88 125 198 126 37 0 78 -4 92 -10z m1924 -9 c-9 -15 -9 -23 1 -35 9 -11 10
-16 2 -16 -17 0 -31 43 -19 58 16 19 29 14 16 -7z m630 -23 c2 -19 -3 -30 -17
-38 -29 -15 -61 3 -61 35 0 26 13 35 50 32 19 -2 26 -8 28 -29z m261 -14 c13
-12 -8 -10 -29 2 l-25 15 25 -7 c14 -3 27 -8 29 -10z m-2259 -54 l0 -60 55 0
c52 0 55 -1 55 -25 0 -24 -3 -25 -55 -25 l-55 0 0 -149 c0 -170 3 -177 71
-168 39 5 40 4 37 -21 -7 -56 -123 -50 -153 8 -11 22 -15 66 -15 180 l0 150
-40 0 c-36 0 -40 3 -40 25 0 23 4 25 40 25 l40 0 0 54 c0 44 4 55 18 59 40 11
42 8 42 -53z m2250 20 c0 -5 -7 -7 -15 -4 -10 4 -15 0 -15 -11 0 -9 -5 -13
-11 -10 -7 5 -4 13 7 26 16 18 34 17 34 -1z m370 -5 c-13 -14 -27 -25 -32 -25
-4 0 2 11 14 25 12 14 26 25 32 25 5 0 -1 -11 -14 -25z m77 -8 c3 -6 1 -7 -5
-3 -7 4 -12 3 -12 -2 0 -6 6 -12 14 -15 7 -3 16 -16 19 -29 l6 -23 -18 24
c-12 16 -21 20 -25 12 -13 -21 -26 -11 -14 10 10 17 10 23 1 26 -7 3 -13 8
-13 13 0 11 39 0 47 -13z m-1304 6 c3 -5 8 -24 11 -43 5 -26 4 -31 -3 -20 -6
8 -11 25 -11 38 0 13 -4 20 -10 17 -5 -3 -10 -1 -10 4 0 13 17 15 23 4z m527
-22 c0 -11 -3 -22 -7 -24 -5 -3 -8 6 -8 19 0 13 3 24 8 24 4 0 7 -9 7 -19z
m359 -46 c0 -13 -5 -8 -14 14 -8 18 -12 38 -8 44 8 13 21 -23 22 -58z m-249
12 c98 -46 108 -48 119 -29 14 23 14 6 0 -19 -10 -19 -1 -66 22 -111 5 -10 9
-26 9 -35 -1 -25 -29 25 -30 51 0 11 -5 34 -12 52 -12 33 -39 50 -155 99 -24
10 -43 22 -43 27 0 5 8 5 18 0 9 -5 42 -21 72 -35z m560 19 c0 -3 -4 -8 -10
-11 -5 -3 -10 -1 -10 4 0 6 5 11 10 11 6 0 10 -2 10 -4z m-623 -36 l23 0 0
-210 0 -210 -30 0 -30 0 0 127 0 126 -30 -41 c-16 -23 -30 -46 -30 -51 0 -5
-7 -14 -15 -21 -18 -15 -20 1 -3 18 7 7 8 12 4 12 -4 0 11 22 34 50 l41 50 -3
84 c-2 54 0 82 7 76 5 -6 19 -10 32 -10z m-1171 -9 c123 -56 154 -245 58 -351
-82 -90 -241 -91 -325 -3 -42 44 -59 88 -59 153 0 95 38 161 114 196 64 30
153 32 212 5z m752 -19 c3 -31 2 -33 -17 -23 -28 15 -66 14 -80 -3 -9 -11 -9
-15 1 -18 8 -3 6 -7 -6 -11 -10 -4 -15 -3 -11 3 15 24 -16 7 -32 -17 -15 -22
-19 -54 -21 -175 l-4 -148 -29 0 -29 0 0 210 0 210 30 0 c26 0 30 -4 30 -27 1
-25 2 -26 11 -10 16 27 68 47 114 44 37 -2 40 -4 43 -35z m1150 18 c35 -16 47
-29 67 -72 14 -30 25 -72 25 -95 l0 -43 -165 0 c-142 0 -165 -2 -165 -15 0
-29 27 -80 59 -109 27 -26 38 -29 89 -29 45 0 70 6 105 25 50 29 57 27 57 -12
0 -21 -7 -29 -34 -38 -19 -7 -36 -21 -39 -32 -3 -11 -11 -20 -19 -19 -10 0
-10 2 0 6 30 12 8 21 -40 16 -173 -17 -281 125 -226 297 38 119 168 174 286
120z m717 8 c18 -8 25 -19 25 -40 0 -32 -5 -33 -40 -13 -64 37 -160 4 -160
-55 0 -31 32 -56 104 -81 22 -8 55 -28 73 -45 74 -70 24 -175 -91 -189 -37 -5
-68 -3 -98 7 -39 13 -43 18 -46 51 l-3 37 35 -21 c62 -36 161 -27 172 16 11
45 -4 62 -90 104 -93 44 -116 68 -116 121 0 71 61 120 152 120 31 0 69 -5 83
-12z m-1512 -28 c4 -17 3 -19 -9 -9 -8 6 -14 18 -14 26 0 20 16 8 23 -17z
m890 -22 c10 -10 29 -18 42 -18 13 0 27 -5 30 -11 5 -7 15 -5 31 6 37 24 65
21 119 -11 28 -17 68 -39 90 -50 29 -14 41 -27 42 -44 2 -15 0 -19 -4 -10 -7
18 -54 60 -67 60 -18 0 -86 34 -86 43 0 4 -5 5 -12 1 -6 -4 -8 -3 -5 3 4 6 -8
10 -29 11 -22 1 -37 -4 -40 -13 -8 -20 -23 -19 -81 6 -49 21 -93 55 -93 72 0
10 26 -9 63 -45z m-483 -59 c11 -46 17 -85 15 -88 -5 -5 -9 7 -24 69 -18 77
-24 115 -16 108 4 -3 15 -44 25 -89z m-826 -34 c18 -13 18 -15 -4 -45 -12 -17
-25 -29 -28 -26 -2 3 0 12 6 19 7 8 8 18 4 22 -4 5 -1 5 6 1 6 -4 12 -2 12 3
0 6 -4 11 -9 11 -5 0 -11 7 -15 15 -7 19 3 19 28 0z m61 -29 c-14 -6 -25 -15
-25 -22 0 -11 -64 -74 -76 -74 -3 0 16 25 41 55 26 30 51 52 56 49 5 -3 9 3 9
13 0 15 2 16 10 3 8 -12 4 -17 -15 -24z m235 4 c0 -5 -5 -10 -11 -10 -5 0 -7
5 -4 10 3 6 8 10 11 10 2 0 4 -4 4 -10z m1045 -29 c0 -13 10 -28 25 -36 54
-29 142 -65 159 -65 16 0 19 -12 26 -97 4 -54 8 -111 10 -126 2 -18 -2 -30
-11 -34 -8 -3 -11 -9 -8 -14 3 -5 2 -15 -2 -21 -6 -9 -10 -5 -14 11 -4 16 -17
28 -40 36 -21 7 -29 14 -22 19 6 4 25 0 41 -9 35 -18 42 -10 36 39 -3 20 -6
67 -7 105 -2 65 -3 68 -32 81 -161 69 -181 82 -171 109 3 8 0 18 -7 23 -10 7
-9 9 2 5 8 -2 15 -14 15 -26z m-1245 4 c0 -8 9 -31 20 -51 12 -20 19 -41 17
-48 -3 -6 -16 15 -31 47 -29 65 -30 67 -16 67 6 0 10 -7 10 -15z m1550 5 c0
-5 -6 -10 -13 -10 -37 0 -38 -54 -7 -330 7 -67 8 -114 2 -129 -7 -20 -10 -6
-16 65 -4 49 -10 112 -12 139 -3 28 -7 79 -8 115 -4 92 -6 99 -16 73 -5 -13
-15 -23 -21 -23 -7 0 -8 4 -2 13 71 94 93 115 93 87z m-1318 -90 c6 -14 15
-33 20 -43 8 -16 4 -39 -5 -26 -9 12 -57 141 -57 152 0 11 19 -25 42 -83z
m388 24 c0 -28 18 -41 26 -20 3 9 11 16 18 16 6 0 -6 -16 -26 -35 -20 -19 -48
-51 -62 -72 -14 -21 -26 -31 -26 -22 0 8 15 33 34 55 22 26 32 45 26 53 -4 7
-5 22 -3 32 3 10 0 19 -6 19 -6 0 -11 8 -11 18 1 15 2 15 15 -2 8 -11 15 -30
15 -42z m-104 6 c6 0 18 -7 25 -17 16 -18 15 -18 -58 17 -29 14 -53 28 -53 32
0 5 17 -1 37 -12 21 -11 43 -20 49 -20z m209 30 c3 -5 -2 -10 -12 -10 -11 0
-24 -5 -31 -12 -7 -7 -12 -9 -12 -6 0 10 30 38 40 38 5 0 12 -4 15 -10z m845
-26 c0 -19 -4 -33 -8 -30 -12 7 -13 66 -1 66 5 0 9 -16 9 -36z m-1726 -8 c-9
-15 -19 -25 -21 -22 -3 2 3 16 13 30 9 15 19 25 21 22 3 -2 -3 -16 -13 -30z
m916 19 c0 -8 -2 -15 -4 -15 -2 0 -6 7 -10 15 -3 8 -1 15 4 15 6 0 10 -7 10
-15z m45 -5 c3 -6 -1 -13 -10 -16 -19 -8 -30 0 -20 15 8 14 22 14 30 1z m425
-12 c0 -13 3 -34 7 -47 4 -17 2 -22 -7 -19 -15 5 -23 88 -9 88 5 0 9 -10 9
-22z m-111 -68 c0 -23 -1 -23 -9 -5 -5 11 -9 31 -9 45 0 23 1 23 9 5 5 -11 9
-31 9 -45z m-1264 14 c-17 -18 -20 -40 -5 -49 6 -3 10 -15 10 -25 0 -10 6 -21
13 -23 8 -4 6 -6 -4 -6 -17 -1 -43 62 -37 89 2 8 -3 14 -10 12 -8 -1 -11 2 -7
7 3 6 12 8 20 4 8 -3 15 0 15 7 0 6 5 8 10 5 6 -4 4 -12 -5 -21z m474 17 c9
-6 5 -8 -13 -8 -14 0 -26 3 -26 8 0 11 21 11 39 0z m245 -7 c3 -8 2 -13 -3
-10 -11 7 -51 -27 -52 -45 0 -11 -2 -11 -6 -1 -3 8 7 27 23 43 33 34 30 33 38
13z m-263 -73 c9 -28 14 -51 11 -51 -4 0 0 -5 8 -10 13 -8 12 -10 -2 -10 -11
0 -18 8 -18 19 0 11 -9 40 -20 66 -23 53 -25 64 -9 48 7 -7 20 -35 30 -62z
m-231 -29 c30 -81 19 -85 -13 -5 -40 97 -41 100 -23 79 9 -11 25 -44 36 -74z
m1502 29 c3 -31 1 -37 -9 -29 -7 5 -11 20 -9 32 3 11 5 24 5 29 2 20 9 2 13
-32z m-1082 -18 c0 -12 5 -25 10 -28 6 -3 10 -16 9 -28 0 -15 -6 -7 -18 23
-13 31 -27 48 -45 54 -39 15 -31 25 9 12 26 -8 35 -17 35 -33z m748 -3 c-1
-22 -6 -40 -10 -40 -4 0 -8 5 -8 10 0 6 -7 10 -15 10 -8 0 -15 4 -15 9 0 5 8
8 18 7 12 -1 16 5 15 22 -2 12 2 22 8 22 5 0 9 -18 7 -40z m-969 -45 c0 -11
-6 -2 -14 20 -8 22 -14 45 -14 50 1 18 28 -49 28 -70z m588 40 c0 -8 -3 -13
-5 -10 -3 3 -14 -9 -24 -26 -11 -17 -22 -29 -25 -26 -4 5 44 77 52 77 1 0 2
-7 2 -15z m-277 -14 c0 -5 -7 -11 -15 -15 -8 -3 -15 -17 -15 -31 0 -15 -6 -25
-15 -25 -9 0 -12 -6 -9 -17 5 -15 4 -16 -5 -3 -8 11 -7 18 4 26 8 6 15 19 15
28 0 18 20 45 33 46 4 0 7 -4 7 -9z m-713 -33 c-3 -8 -6 -5 -6 6 -1 11 2 17 5
13 3 -3 4 -12 1 -19z m812 -18 c69 -34 81 -37 91 -24 7 8 15 12 18 9 3 -2 0
-11 -7 -18 -8 -11 -5 -38 14 -113 49 -188 55 -217 51 -222 -8 -8 -26 46 -26
78 0 16 -4 31 -9 34 -5 3 -11 20 -14 38 -7 46 -26 118 -38 149 -7 18 -31 34
-85 59 -41 18 -77 37 -80 42 -9 14 4 9 85 -32z m900 -81 c1 -67 6 -130 12
-141 7 -13 7 -23 0 -31 -6 -8 -6 -18 -1 -27 6 -8 10 -28 9 -45 l0 -30 -12 35
c-7 19 -14 91 -15 160 -2 83 -7 127 -15 132 -9 6 -8 8 2 8 8 0 11 6 7 15 -3 8
-9 22 -12 30 -4 9 -1 15 9 15 12 0 15 -21 16 -121z m-1279 41 c5 8 12 11 17 7
4 -5 1 -12 -6 -16 -9 -6 -11 -18 -7 -36 6 -23 9 -25 22 -14 10 8 14 24 12 41
-3 15 -1 28 4 28 12 0 10 -58 -2 -65 -5 -3 -10 -17 -10 -30 0 -13 5 -27 10
-30 6 -3 10 -17 10 -30 0 -13 5 -27 10 -30 6 -3 10 -20 10 -36 0 -18 -4 -28
-10 -24 -6 4 -8 10 -5 15 7 11 -19 89 -47 144 -19 37 -36 108 -30 124 5 11 8
3 10 -22 2 -28 6 -36 12 -26z m663 -38 c29 -152 36 -171 71 -187 l31 -14 -28
6 c-25 5 -28 3 -25 -13 4 -26 98 -71 109 -53 4 8 11 10 16 6 4 -5 2 -12 -5
-16 -9 -6 -7 -12 8 -26 21 -19 26 -35 12 -35 -5 0 -14 10 -21 23 -7 13 -37 34
-67 47 -60 26 -66 32 -70 69 -2 23 -16 87 -44 191 -15 56 -20 100 -12 100 4 0
15 -44 25 -98z m332 53 c25 -12 27 -15 9 -15 -26 0 -76 38 -68 51 3 6 11 4 17
-5 7 -8 26 -22 42 -31z m-955 19 c0 -2 -7 -4 -15 -4 -8 0 -15 4 -15 10 0 5 7
7 15 4 8 -4 15 -8 15 -10z m243 -63 c10 -11 9 -13 -3 -9 -10 3 -15 19 -16 44
-1 29 -1 32 3 9 3 -16 10 -36 16 -44z m511 54 c-4 -11 -2 -13 9 -10 8 4 22 -1
30 -10 9 -9 19 -15 22 -15 3 1 11 0 18 -3 6 -2 0 -4 -16 -4 -15 0 -30 3 -33 8
-3 5 -20 9 -37 10 -18 0 -26 3 -19 6 6 2 12 9 12 14 0 6 -5 7 -12 3 -7 -4 -8
-3 -4 4 11 18 36 15 30 -3z m-1176 -63 c18 -38 32 -75 31 -83 0 -11 -2 -11 -6
1 -3 8 -21 45 -39 83 -18 37 -29 67 -25 67 3 0 21 -31 39 -68z m201 13 c7 -25
16 -45 20 -45 4 0 13 -21 20 -47 8 -27 18 -55 22 -63 4 -8 17 -42 29 -75 12
-33 28 -71 35 -85 10 -18 11 -30 4 -40 -9 -13 -10 -13 -6 0 2 8 -2 21 -10 28
-7 7 -13 24 -13 36 0 13 -7 29 -15 36 -8 7 -15 21 -15 31 0 18 -27 93 -56 154
-23 51 -43 115 -36 115 4 0 14 -20 21 -45z m1231 15 c0 -5 -7 -10 -16 -10 -8
0 -12 5 -9 10 3 6 10 10 16 10 5 0 9 -4 9 -10z m-277 -17 c-4 -10 -15 -27 -25
-37 -13 -15 -15 -23 -7 -33 8 -8 8 -13 1 -13 -6 0 -13 6 -16 13 -4 6 -4 2 -2
-10 4 -24 -8 -31 -19 -13 -4 6 10 33 31 60 41 54 47 59 37 33z m-523 -47 c0
-14 5 -28 10 -31 6 -3 9 -23 9 -43 -1 -26 -3 -30 -6 -12 -2 14 -8 34 -13 45
-9 21 -30 85 -30 92 0 3 7 -2 15 -11 8 -8 15 -26 15 -40z m645 44 c-3 -5 -12
-10 -18 -10 -7 0 -6 4 3 10 19 12 23 12 15 0z m135 -9 c0 -5 -7 -11 -14 -14
-10 -4 -13 -1 -9 9 6 15 23 19 23 5z m-56 -19 c21 -13 29 -26 31 -50 2 -17 -1
-32 -6 -32 -5 0 -9 14 -9 30 0 22 -6 33 -22 39 -13 5 -34 13 -48 19 l-25 11
25 0 c14 0 38 -8 54 -17z m1594 9 c9 -6 44 -21 76 -36 32 -14 56 -28 53 -31
-3 -3 -23 3 -44 14 -21 10 -58 29 -83 40 -25 11 -39 21 -32 21 7 1 20 -3 30
-8z m-2488 -56 c4 -5 11 -26 14 -45 5 -29 3 -27 -14 15 -11 28 -19 59 -19 70
1 15 3 14 6 -5 3 -14 8 -29 13 -35z m207 33 c-3 -8 -6 -5 -6 6 -1 11 2 17 5
13 3 -3 4 -12 1 -19z m502 -48 c-9 -19 -16 -25 -21 -17 -6 9 -8 9 -8 -1 0 -7
-4 -10 -10 -7 -6 4 -5 11 3 19 6 8 15 12 19 10 3 -2 10 10 14 28 5 22 9 27 12
15 2 -9 -2 -31 -9 -47z m268 8 c1 -49 0 -50 -8 -18 -7 29 -4 70 4 70 2 0 3
-24 4 -52z m1452 30 c-6 -13 -22 -37 -35 -55 -13 -17 -24 -35 -24 -40 0 -4
-11 -20 -25 -35 -14 -15 -25 -31 -25 -35 0 -4 -11 -21 -24 -36 -24 -28 -26
-28 -48 -12 -23 17 -23 17 -1 12 27 -6 41 9 123 131 60 89 83 116 59 70z
m-1326 -238 c8 -80 17 -179 20 -220 l5 -75 -13 65 c-8 36 -14 104 -15 153 0
81 -13 117 -23 65 -2 -13 -2 -7 1 12 5 40 5 52 -2 170 -6 111 6 36 27 -170z
m-880 213 c10 -16 11 -58 2 -60 -6 -1 -9 5 -7 13 2 7 -2 23 -8 34 -10 19 2 30
13 13z m840 -86 c2 -32 0 -52 -4 -45 -5 7 -8 38 -8 68 1 66 6 56 12 -23z
m1592 63 c3 -5 2 -10 -4 -10 -5 0 -13 5 -16 10 -3 6 -2 10 4 10 5 0 13 -4 16
-10z m35 -10 c0 -5 -4 -10 -10 -10 -5 0 -10 5 -10 10 0 6 5 10 10 10 6 0 10
-4 10 -10z m-3102 -7 c-1 -5 13 -39 32 -78 18 -38 35 -74 37 -80 3 -5 -4 1
-16 15 -11 14 -28 45 -37 70 -9 25 -21 50 -25 56 -5 6 -6 14 -2 17 8 9 13 9
11 0z m1151 -59 c7 -37 10 -68 8 -70 -6 -6 -57 20 -57 29 0 4 9 3 19 -3 26
-13 34 -13 25 2 -4 6 -8 25 -9 42 -1 17 -3 36 -5 41 -3 13 -1 25 4 25 2 0 9
-30 15 -66z m201 32 c0 -14 -4 -28 -10 -31 -6 -4 -10 7 -10 24 0 17 5 31 10
31 6 0 10 -11 10 -24z m1803 6 c15 -16 14 -20 -6 -51 -11 -19 -23 -29 -25 -23
-2 7 4 19 12 28 23 22 17 45 -14 57 -13 5 -13 6 1 6 9 1 23 -7 32 -17z m-1753
-23 c0 -5 -7 -9 -15 -9 -8 0 -15 7 -15 15 0 9 6 12 15 9 8 -4 15 -10 15 -15z
m-762 -81 c6 -21 6 -38 2 -38 -7 0 -12 21 -24 100 -5 34 -5 34 4 5 5 -16 13
-47 18 -67z m26 41 c-3 -5 -1 -9 3 -9 9 0 33 -92 33 -128 0 -12 -4 -22 -10
-22 -5 0 -10 -9 -10 -19 0 -11 5 -23 10 -26 6 -3 9 -21 9 -38 -1 -20 -3 -25
-6 -12 -2 11 -13 45 -24 76 -10 30 -18 64 -18 75 1 11 4 7 8 -10 7 -36 31 -47
31 -15 0 24 -16 82 -31 111 -5 10 -9 30 -8 45 0 28 0 28 10 5 5 -13 7 -28 3
-33z m896 -23 c-7 -7 -10 1 -9 25 0 32 1 33 10 10 6 -16 6 -28 -1 -35z m-160
24 c-8 -5 -17 -7 -19 -4 -3 3 1 9 9 14 8 5 17 7 19 4 3 -3 -1 -9 -9 -14z
m-943 -15 c1 -16 1 -16 -3 -2 -3 9 -9 17 -14 17 -5 0 -14 -8 -19 -17 -9 -15
-10 -16 -11 -2 0 35 43 39 47 4z m885 3 c-7 -7 -12 -8 -12 -2 0 6 3 14 7 17 3
4 9 5 12 2 2 -3 -1 -11 -7 -17z m59 -31 c-8 -8 -11 -7 -11 4 0 20 13 34 18 19
3 -7 -1 -17 -7 -23z m1229 2 c0 -5 -4 -8 -9 -5 -14 9 -41 -4 -41 -19 0 -7 -7
-16 -16 -19 -11 -4 -10 2 6 24 20 29 60 42 60 19z m472 -19 c-6 -15 -11 -19
-16 -12 -4 7 -1 18 6 26 17 19 20 14 10 -14z m-2699 -9 c-5 -3 -23 -25 -40
-48 -17 -23 -33 -40 -36 -37 -3 4 13 31 36 61 22 31 43 50 45 43 3 -7 0 -15
-5 -19z m52 8 c-7 -11 -35 -12 -35 -1 0 4 9 8 20 9 11 1 18 -2 15 -8z m917
-56 c4 -67 -11 -53 -19 18 -4 37 -2 51 5 44 5 -5 12 -33 14 -62z m202 35 c15
-102 16 -129 3 -116 -16 15 -31 148 -17 148 5 0 11 -15 14 -32z m-1095 -29
c-21 -13 -29 -11 -23 6 4 8 10 15 15 15 4 0 6 8 3 18 -2 9 1 7 8 -6 9 -19 9
-25 -3 -33z m933 39 c-14 -14 -16 -42 -2 -33 6 3 10 -2 10 -12 0 -10 3 -36 7
-57 5 -30 3 -37 -6 -32 -7 5 -10 14 -7 22 3 7 1 16 -3 18 -11 7 -21 73 -14 92
3 8 10 14 16 14 7 0 7 -4 -1 -12z m-964 -49 c7 -23 10 -44 7 -47 -3 -3 -5 2
-5 11 0 28 -16 19 -46 -25 -16 -24 -37 -52 -48 -65 -17 -20 -19 -21 -36 -5
-26 25 -35 78 -16 85 17 7 22 -8 7 -17 -10 -6 15 -66 27 -66 4 0 27 30 51 65
28 43 41 72 38 85 -10 38 8 20 21 -21z m606 24 c21 -69 43 -213 31 -201 -5 4
-23 89 -31 139 -2 14 -8 38 -13 52 -6 16 -7 27 -1 27 5 0 11 -8 14 -17z m586
-60 c0 -13 -5 -23 -11 -23 -6 0 -8 8 -4 19 3 11 1 22 -5 26 -5 3 -10 16 -10
28 1 21 1 21 15 -3 8 -14 14 -35 15 -47z m910 53 c0 -3 -4 -8 -10 -11 -5 -3
-10 -1 -10 4 0 6 5 11 10 11 6 0 10 -2 10 -4z m490 -52 c-32 -45 -32 -47 -15
-60 10 -8 25 -14 32 -14 7 0 13 -5 13 -11 0 -6 6 -9 14 -6 11 4 14 -1 13 -21
-1 -15 -4 -29 -8 -32 -3 -3 -15 -22 -28 -43 -13 -21 -28 -43 -34 -50 -22 -24
-44 -72 -51 -112 -12 -66 -39 -144 -48 -139 -5 3 -5 11 1 17 18 22 43 168 31
182 -9 11 -7 12 9 8 15 -4 23 3 36 31 9 19 23 40 31 47 8 6 14 17 14 24 0 7 7
18 15 25 26 22 18 50 -19 65 -19 8 -38 20 -41 25 -9 14 12 65 39 95 34 39 32
18 -4 -31z m-2140 -11 c7 -32 17 -63 22 -70 5 -7 7 -16 5 -20 -3 -5 3 -39 13
-76 11 -39 15 -69 9 -72 -5 -4 -9 3 -9 13 0 11 -6 42 -14 68 -51 175 -60 214
-49 214 6 0 16 -26 23 -57z m-787 -15 c14 -29 32 -70 41 -90 35 -82 49 -108
56 -108 5 0 18 15 29 33 12 17 33 46 47 62 l26 30 -16 -32 c-9 -18 -12 -33 -7
-33 5 0 13 9 16 20 3 11 11 20 17 20 7 0 7 -5 -1 -14 -23 -27 -3 -44 94 -83
22 -9 53 -25 68 -36 17 -11 38 -17 53 -14 16 3 24 0 24 -10 0 -8 6 -13 13 -10
21 7 13 32 -11 35 -13 2 -26 11 -29 20 -3 9 -11 31 -19 49 -8 17 -14 36 -14
43 0 6 -7 25 -16 42 -14 28 -14 30 -1 25 19 -7 31 23 23 56 -5 18 -4 18 5 -3
6 -14 15 -33 20 -42 5 -10 5 -19 -1 -23 -6 -3 -10 2 -10 12 -1 16 -2 16 -10 1
-6 -9 -7 -31 -3 -48 l6 -32 13 28 c7 16 13 23 13 16 1 -7 -4 -22 -10 -33 -11
-22 -4 -59 12 -59 6 0 8 8 5 18 -3 9 -2 23 3 30 5 9 8 3 9 -17 0 -17 -4 -33
-9 -36 -14 -10 -10 -32 6 -32 9 0 15 10 15 26 1 21 4 17 16 -17 9 -24 13 -50
10 -58 -8 -20 -57 -17 -86 6 -14 11 -31 20 -37 20 -7 0 -13 5 -13 10 0 6 -4 9
-8 8 -9 -3 -134 53 -142 64 -3 3 -12 8 -21 10 -17 3 -69 -52 -69 -73 0 -8 29
-27 65 -44 35 -16 60 -31 55 -33 -18 -6 -123 59 -138 86 -35 64 -93 186 -112
237 -17 44 -2 27 23 -27z m2397 10 c-22 -30 -22 -32 -4 -44 10 -7 24 -18 31
-24 7 -5 18 -10 26 -10 7 0 44 -16 83 -35 38 -19 74 -35 80 -35 8 0 9 -11 4
-34 -4 -19 -5 -37 -2 -40 3 -4 0 -6 -6 -6 -6 0 -12 -6 -15 -12 -2 -7 -2 -2 1
12 14 66 12 69 -73 106 -44 19 -92 42 -108 50 -15 8 -31 13 -37 9 -5 -3 -34 3
-65 13 l-57 19 -29 -40 c-16 -22 -42 -60 -57 -84 -15 -24 -31 -43 -36 -43 -5
0 -2 8 7 18 10 10 17 21 17 25 0 11 81 122 95 130 9 4 27 1 44 -8 35 -18 71
-20 71 -4 0 17 41 81 48 74 3 -3 -5 -19 -18 -37z m-1781 -43 c14 -35 31 -91
31 -105 0 -7 -8 -19 -17 -26 -15 -11 -16 -13 -2 -14 8 0 20 5 26 11 9 9 12 7
11 -7 -1 -10 2 -30 5 -44 4 -14 4 -19 1 -12 -8 17 -24 5 -17 -13 10 -27 -12
-15 -24 13 -22 54 -24 69 -8 76 19 7 20 46 1 46 -8 0 -17 -10 -19 -22 -4 -20
-4 -20 -6 4 0 14 5 28 12 31 10 3 10 11 0 39 -7 19 -12 50 -12 69 2 33 2 33 6
4 2 -16 7 -39 12 -50z m517 60 c19 -8 44 -22 57 -30 l22 -17 -25 7 c-14 4 -32
14 -41 21 -8 8 -23 14 -32 14 -9 0 -19 5 -22 10 -8 13 -1 13 41 -5z m-762 -33
c-4 -18 -10 -29 -15 -27 -4 3 -3 19 3 36 13 38 20 32 12 -9z m1015 -9 l-1 -48
-8 40 c-7 37 -5 55 6 55 2 0 3 -21 3 -47z m-145 -15 c-3 -4 -9 -8 -15 -8 -5 0
-9 4 -9 8 0 5 7 9 15 9 8 0 12 -4 9 -9z m296 -20 c0 -5 -4 -8 -10 -8 -5 0 -10
10 -10 23 0 18 2 19 10 7 5 -8 10 -18 10 -22z m-260 -43 c0 -46 17 -62 27 -25
3 11 9 20 14 20 15 0 10 -16 -10 -34 -23 -21 -41 -14 -41 16 0 17 -2 18 -15 8
-12 -10 -15 -10 -15 4 0 9 7 16 15 16 8 0 12 6 9 14 -5 12 -41 15 -49 4 -1 -2
-11 -17 -23 -35 -12 -17 -22 -34 -22 -37 0 -10 60 -37 70 -31 6 3 10 13 10 21
0 12 3 12 20 2 11 -7 20 -16 20 -19 0 -4 -9 -5 -20 -2 -11 3 -20 0 -20 -6 0
-6 6 -11 14 -11 8 0 22 -7 30 -16 23 -23 39 -7 33 32 -3 19 -2 34 4 34 5 0 9
-22 9 -50 0 -52 -15 -65 -40 -35 -7 8 -18 15 -24 15 -15 0 -216 98 -216 105 0
3 17 -2 38 -11 20 -9 42 -18 47 -20 6 -3 25 16 43 41 26 36 37 45 62 45 29 0
30 -2 30 -45z m50 31 c0 -11 -19 -15 -25 -6 -3 5 1 10 9 10 9 0 16 -2 16 -4z
m149 -18 c0 -13 -4 -32 -9 -43 -7 -15 -9 -10 -9 23 -1 23 4 42 9 42 6 0 10
-10 9 -22z m38 -10 c-3 -8 -6 -5 -6 6 -1 11 2 17 5 13 3 -3 4 -12 1 -19z m853
13 c0 -6 -4 -12 -9 -15 -4 -3 -7 -18 -5 -33 1 -15 -1 -34 -6 -43 -7 -10 -9 1
-10 36 0 28 3 54 7 57 9 10 23 8 23 -2z m-1346 -36 c-28 -22 -40 -18 -13 4 13
11 26 17 28 15 3 -2 -4 -11 -15 -19z m379 -55 c4 -37 3 -50 -3 -40 -9 14 -15
109 -6 99 2 -2 6 -29 9 -59z m137 8 c0 -23 -3 -38 -7 -34 -11 10 -12 87 -2 80
5 -3 9 -24 9 -46z m261 26 c98 -46 124 -59 129 -66 3 -3 16 -9 30 -13 14 -3
36 -15 50 -26 14 -11 21 -19 15 -17 -14 6 -107 50 -194 92 -84 41 -96 43 -110
19 -7 -13 -10 -14 -11 -4 0 10 19 32 36 41 0 0 25 -11 55 -26z m-818 -41 c-15
-21 -31 -39 -35 -41 -5 -2 -8 -9 -8 -15 0 -7 -14 -28 -31 -47 l-31 -35 23 40
c13 22 35 56 51 75 15 19 28 40 28 47 0 7 7 13 16 13 11 0 8 -9 -13 -37z m506
-16 c0 -12 -4 -31 -8 -42 -5 -13 -8 -5 -8 28 -1 26 3 45 8 41 5 -3 9 -15 8
-27z m1269 -15 c40 -19 71 -37 69 -39 -3 -2 -39 12 -81 32 -42 19 -80 35 -85
35 -6 0 -13 5 -17 11 -9 16 25 4 114 -39z m209 6 c-8 -18 -18 -40 -20 -48 -4
-12 -6 -11 -6 3 -1 23 27 92 35 84 3 -3 -1 -20 -9 -39z m68 16 c-13 -14 -27
-35 -30 -45 -7 -20 -25 -26 -25 -9 0 6 5 10 11 10 5 0 7 5 4 10 -3 6 -1 10 4
10 6 0 11 7 11 15 0 7 8 19 18 24 29 18 32 12 7 -15z m50 16 c3 -5 1 -10 -4
-10 -6 0 -11 5 -11 10 0 6 2 10 4 10 3 0 8 -4 11 -10z m-1417 -62 c-24 -35
-45 -65 -48 -68 -21 -21 -30 -53 -19 -66 14 -17 -2 -19 -18 -3 -7 7 -29 20
-50 30 -29 13 -33 18 -17 18 20 1 21 5 16 49 -2 26 -1 44 3 39 5 -4 9 -29 10
-55 2 -38 6 -47 21 -49 18 -3 64 54 64 78 0 5 5 9 10 9 6 0 10 7 10 15 0 8 4
15 8 15 5 0 15 11 22 25 7 14 17 25 22 25 5 0 -11 -28 -34 -62z m455 15 c-7
-3 -13 -11 -13 -19 0 -8 -5 -14 -11 -14 -5 0 -7 6 -3 13 15 26 27 37 33 31 3
-4 0 -9 -6 -11z m1140 -33 c26 -11 47 -23 47 -25 0 -5 -34 7 -94 35 -25 11
-49 20 -55 20 -5 0 -13 4 -16 10 -6 10 44 -7 118 -40z m-922 -20 c-5 -23 -7
-48 -4 -55 2 -8 -3 -25 -12 -39 -15 -23 -15 -26 -2 -26 9 0 19 -5 22 -11 4 -5
-10 -3 -31 6 -44 18 -59 30 -27 23 25 -7 33 7 33 55 0 55 12 109 22 99 5 -5 5
-26 -1 -52z m-920 19 c-9 -22 -10 -22 -10 -3 -1 11 2 24 6 27 12 12 14 0 4
-24z m-564 -1 c-2 -7 0 -21 5 -30 6 -14 5 -16 -7 -12 -17 7 -21 54 -4 54 6 0
9 -6 6 -12z m518 2 c3 -5 2 -10 -4 -10 -5 0 -13 5 -16 10 -3 6 -2 10 4 10 5 0
13 -4 16 -10z m-807 -16 c33 -16 50 -34 33 -34 -5 0 -11 4 -13 8 -1 4 -19 15
-38 25 -19 9 -30 17 -24 17 6 0 25 -7 42 -16z m118 -12 c-5 -14 -13 -18 -26
-15 -11 3 -17 9 -15 14 3 4 12 6 20 2 10 -3 15 1 15 13 0 9 3 15 6 11 3 -3 3
-14 0 -25z m1384 13 c0 -12 -19 -12 -23 0 -4 9 -1 12 9 8 7 -3 14 -7 14 -8z
m910 -6 c0 -6 -4 -7 -10 -4 -5 3 -10 11 -10 16 0 6 5 7 10 4 6 -3 10 -11 10
-16z m-880 -5 c0 -9 5 -12 13 -8 9 5 9 4 1 -5 -14 -15 -44 -3 -37 15 7 19 23
18 23 -2z m832 -71 c-18 -28 -22 -29 -22 -2 0 11 5 17 10 14 6 -4 10 9 11 32
1 37 2 37 8 8 5 -19 2 -38 -7 -52z m-1482 57 c13 -8 13 -10 -2 -10 -9 0 -20 5
-23 10 -8 13 5 13 25 0z m50 -5 c0 -8 -7 -15 -16 -15 -14 0 -14 3 -4 15 7 8
14 15 16 15 2 0 4 -7 4 -15z m1100 -20 c0 -5 -5 -3 -10 5 -5 8 -10 20 -10 25
0 6 5 3 10 -5 5 -8 10 -19 10 -25z m750 25 c0 -5 -4 -10 -9 -10 -6 0 -13 5
-16 10 -3 6 1 10 9 10 9 0 16 -4 16 -10z m-3045 -35 c22 -11 42 -23 45 -26 3
-4 15 -10 28 -14 13 -4 21 -9 18 -13 -7 -7 -133 55 -142 70 -7 12 -7 11 51
-17z m340 7 c-3 -3 -11 0 -18 7 -9 10 -8 11 6 5 10 -3 15 -9 12 -12z m65 -26
c0 -26 -6 -18 -14 19 -5 22 -4 26 4 15 5 -8 10 -24 10 -34z m1488 19 c29 -14
57 -25 64 -25 9 0 8 -3 -1 -12 -11 -10 -14 -10 -18 0 -3 6 -10 12 -16 13 -20
1 -113 48 -96 49 8 0 39 -11 67 -25z m1202 12 c0 -4 5 -5 10 -2 6 3 10 1 10
-4 0 -14 -10 -13 -40 4 -24 13 -24 14 -2 12 12 -1 22 -5 22 -10z m-2540 -32
c-7 -14 -17 -25 -22 -25 -5 0 -1 13 8 30 21 35 33 31 14 -5z m-180 4 c0 -9 -6
-18 -36 -52 -23 -27 -23 -51 1 -122 14 -40 25 -81 25 -89 0 -9 5 -16 10 -16 6
0 10 -10 10 -21 0 -22 30 -117 56 -176 8 -17 14 -35 14 -40 0 -5 12 -44 26
-88 15 -44 28 -87 29 -95 2 -8 4 -16 5 -17 2 -2 3 -7 4 -13 0 -5 8 -18 17 -28
15 -18 15 -21 -2 -43 -10 -13 -19 -27 -19 -31 0 -13 -60 -102 -60 -89 0 7 -5
9 -11 5 -8 -4 -8 -9 0 -17 6 -6 11 -20 11 -31 0 -12 -3 -16 -9 -11 -10 11 -14
36 -12 75 1 20 3 22 11 10 9 -13 13 -11 30 10 25 32 25 40 -1 94 -11 24 -21
53 -22 65 -1 11 -5 21 -9 21 -4 0 -8 8 -8 18 0 36 -37 113 -68 140 -18 16 -32
36 -32 45 0 9 -4 19 -10 22 -5 3 -10 16 -10 29 0 12 -4 27 -10 34 -7 9 -7 9 3
2 6 -6 19 -32 28 -58 10 -31 24 -51 41 -59 17 -9 29 -27 38 -58 7 -25 17 -48
21 -51 5 -3 9 -16 9 -29 0 -13 4 -26 9 -29 4 -3 14 -27 21 -53 17 -62 26 -72
47 -51 13 14 14 20 4 32 -12 14 -78 207 -87 256 -3 13 -9 29 -13 35 -4 5 -13
30 -21 55 -27 94 -71 226 -80 242 -6 10 -10 27 -10 38 0 29 -11 25 -48 -16
-18 -20 -35 -34 -38 -31 -2 2 8 18 24 35 16 17 27 34 23 37 -3 4 0 5 8 3 7 -1
15 5 16 14 2 10 16 35 33 55 16 21 27 44 24 52 -3 8 0 11 7 7 6 -4 11 -12 11
-17z m1900 -52 c-6 -23 -16 -62 -20 -87 -5 -25 -14 -63 -19 -85 -10 -40 -10
-40 -5 10 8 77 12 102 23 142 6 21 11 52 11 68 1 26 2 28 11 12 8 -14 8 -31
-1 -60z m854 38 c-4 -8 -14 -15 -23 -15 -14 1 -13 3 3 15 25 19 27 19 20 0z
m-3264 -30 c0 -8 -2 -15 -4 -15 -2 0 -6 7 -10 15 -3 8 -1 15 4 15 6 0 10 -7
10 -15z m562 -20 c3 -14 1 -25 -3 -25 -5 0 -9 11 -9 25 0 14 2 25 4 25 2 0 6
-11 8 -25z m88 4 c-7 -11 -14 -18 -17 -15 -3 3 0 12 7 21 18 21 23 19 10 -6z
m2088 -22 c-2 -24 -8 -44 -14 -44 -8 0 -9 12 -3 36 5 20 9 39 9 44 0 4 2 7 5
7 3 0 4 -19 3 -43z m-1298 25 c0 -4 -9 -8 -20 -8 -11 0 -20 4 -20 8 0 4 9 8
20 8 11 0 20 -4 20 -8z m-1215 -32 c-10 -11 -20 -18 -23 -15 -3 3 3 14 13 25
10 11 20 18 23 15 3 -3 -3 -14 -13 -25z m3005 24 c0 -3 -7 -12 -15 -20 -19
-20 -20 -41 -1 -25 11 9 10 4 -2 -24 -17 -38 -33 -48 -25 -15 3 11 0 20 -6 20
-6 0 -1 16 11 35 21 31 38 45 38 29z m-3208 -29 c3 -14 1 -25 -3 -25 -5 0 -9
11 -9 25 0 14 2 25 4 25 2 0 6 -11 8 -25z m2210 13 c14 -7 31 -21 38 -31 7
-12 7 -17 1 -13 -7 5 -9 -7 -5 -36 4 -33 0 -50 -15 -73 -12 -16 -21 -25 -21
-19 0 5 4 14 9 20 15 14 22 67 10 75 -8 5 -8 13 0 27 10 19 7 24 -26 41 -41
22 -33 29 9 9z m-846 -14 c-9 -8 -14 -19 -11 -24 3 -5 2 -10 -2 -12 -5 -1 -23
-25 -40 -53 -18 -27 -33 -42 -33 -33 0 9 4 19 9 23 6 3 24 30 41 60 17 30 36
55 41 55 6 0 3 -7 -5 -16z m64 -70 c0 -63 -5 -94 -17 -115 -17 -29 -33 -38
-33 -19 0 6 4 10 9 10 23 0 34 62 25 136 -8 59 -7 74 3 74 10 0 13 -23 13 -86z
m-836 51 c-9 -14 -20 -25 -26 -25 -11 0 23 49 35 50 4 0 0 -11 -9 -25z m-269
-66 c12 -12 -41 9 -70 28 -30 20 -59 17 -50 -4 4 -10 10 -27 13 -38 3 -11 11
-31 18 -44 7 -14 10 -29 6 -35 -4 -6 -8 0 -10 14 -2 14 -8 29 -13 35 -5 5 -9
16 -9 24 0 8 -8 23 -17 34 -17 18 -17 19 0 28 10 6 15 14 12 19 -7 11 105 -47
120 -61z m225 30 c0 -16 3 -28 8 -27 4 1 28 -8 54 -20 26 -12 51 -22 57 -22 5
0 12 -4 15 -9 3 -5 -5 -8 -19 -7 -14 0 -25 4 -25 7 0 7 -67 39 -81 39 -6 0 -7
-5 -3 -12 4 -7 3 -8 -4 -4 -7 4 -12 18 -12 32 0 14 -5 34 -10 44 -8 16 -8 18
5 14 9 -4 15 -18 15 -35z m-522 -11 c8 -18 22 -50 33 -71 10 -22 19 -44 19
-50 0 -10 -80 141 -80 151 0 1 3 2 8 2 4 0 13 -15 20 -32z m2582 -70 c-12 -46
-26 -94 -30 -108 -5 -14 -11 -42 -15 -62 -3 -21 -11 -38 -17 -38 -6 0 -7 7 -3
18 7 16 13 38 33 127 5 22 14 52 20 68 7 15 8 27 5 27 -4 0 -2 5 5 12 7 7 12
21 12 32 0 10 3 16 6 13 4 -4 -3 -44 -16 -89z m76 51 c-8 -19 -24 -72 -36
-119 -12 -47 -26 -93 -31 -103 -5 -10 -7 -22 -4 -27 4 -6 1 -10 -4 -10 -13 0
-15 42 -3 55 5 6 13 28 20 50 44 161 59 202 68 192 3 -2 -2 -20 -10 -38z m70
26 c10 -8 14 -15 7 -15 -19 0 -43 11 -43 21 0 13 14 11 36 -6z m391 -14 c-1
-17 -5 -27 -9 -23 -7 7 0 52 8 52 2 0 2 -13 1 -29z m-936 -18 c-19 -35 -81
-118 -81 -108 0 6 9 21 20 35 11 14 20 31 20 38 0 6 4 12 9 12 5 0 11 9 14 20
3 11 10 20 16 20 8 0 9 -6 2 -17z m599 7 c8 -5 12 -11 9 -14 -3 -3 -14 1 -25
9 -21 16 -8 20 16 5z m433 -53 c15 -10 27 -23 27 -29 0 -7 -10 -2 -22 9 -13
11 -38 26 -55 34 -18 8 -33 17 -33 21 0 9 46 -10 83 -35z m-2883 15 c0 -10 4
-22 9 -27 13 -15 24 -55 14 -55 -4 0 -15 23 -25 50 -9 28 -12 50 -7 50 5 0 9
-8 9 -18z m2537 -4 c29 -13 53 -27 53 -31 0 -4 -9 -3 -19 3 -34 18 -47 11 -61
-32 -7 -24 -17 -47 -22 -52 -4 -6 -8 -20 -8 -32 0 -13 -4 -26 -10 -29 -15 -10
-12 29 5 51 8 10 15 28 15 39 0 11 7 33 15 49 17 33 18 32 -15 45 -14 5 -20
10 -15 10 6 1 34 -9 62 -21z m-2311 -61 c9 -28 19 -58 22 -64 2 -7 -1 -13 -6
-13 -6 0 -16 25 -23 55 -7 31 -16 58 -21 61 -4 3 -8 10 -8 15 0 24 20 -6 36
-54z m676 25 c-7 -2 -12 -9 -12 -16 0 -6 -13 -27 -28 -46 -16 -19 -39 -53 -52
-75 -13 -22 -28 -43 -33 -46 -5 -4 -7 -24 -4 -45 3 -22 10 -74 16 -117 6 -44
13 -89 16 -100 2 -12 -2 -9 -9 8 -8 17 -18 60 -22 98 -3 37 -10 69 -14 72 -4
2 -5 15 -3 28 6 29 -3 36 -116 92 -51 25 -91 48 -88 51 3 3 13 1 24 -5 10 -6
55 -28 100 -50 l82 -40 42 62 c23 34 56 83 73 109 17 25 33 41 35 35 2 -6 -1
-13 -7 -15z m-527 -10 c-6 -7 -34 11 -29 19 3 5 11 3 19 -4 7 -6 12 -13 10
-15z m1530 10 c-3 -3 -11 0 -18 7 -9 10 -8 11 6 5 10 -3 15 -9 12 -12z m710
-2 c3 -5 1 -10 -4 -10 -6 0 -11 5 -11 10 0 6 2 10 4 10 3 0 8 -4 11 -10z
m-773 -23 c-5 -7 -31 -46 -57 -87 -26 -41 -70 -107 -96 -147 -27 -40 -49 -77
-49 -83 0 -5 -5 -10 -11 -10 -6 0 -1 15 10 33 12 17 33 53 48 80 14 26 30 47
35 47 4 0 8 5 8 10 0 13 88 147 101 156 5 3 6 10 3 16 -4 7 -2 8 5 4 7 -5 9
-12 3 -19z m148 -8 c59 -30 73 -40 48 -35 -24 5 -107 47 -113 56 -9 15 0 12
65 -21z m-1520 -14 c19 -12 44 -25 54 -28 10 -4 16 -10 13 -13 -3 -4 -32 8
-63 25 -32 17 -64 31 -71 31 -7 0 -13 5 -13 11 0 14 35 3 80 -26z m2185 25 c3
-5 -1 -10 -9 -10 -9 0 -16 5 -16 10 0 6 4 10 9 10 6 0 13 -4 16 -10z m230 -7
c-1 -10 -5 -26 -10 -36 -6 -15 -10 -16 -16 -5 -13 19 -11 36 2 18 9 -12 10
-11 6 7 -3 12 0 24 7 27 6 2 12 5 12 5 1 1 0 -7 -1 -16z m-3196 -8 c16 -8 31
-11 35 -8 3 4 6 1 6 -5 0 -16 -5 -15 -46 4 -35 17 -35 16 -65 -11 -34 -33 -39
-27 -7 10 25 29 38 31 77 10z m208 -7 c-3 -8 -6 -5 -6 6 -1 11 2 17 5 13 3 -3
4 -12 1 -19z m2857 -21 c33 -18 61 -39 64 -47 2 -11 1 -12 -5 -3 -5 7 -39 26
-76 43 -37 18 -67 34 -67 36 0 10 30 0 84 -29z m-989 13 c3 -5 1 -10 -4 -10
-6 0 -11 5 -11 10 0 6 2 10 4 10 3 0 8 -4 11 -10z m-1728 -37 c-3 -10 -5 -4
-5 12 0 17 2 24 5 18 2 -7 2 -21 0 -30z m-117 3 c0 -7 7 -27 16 -45 9 -17 17
-38 18 -45 4 -27 37 -66 56 -66 11 0 20 -4 20 -9 0 -5 13 -12 30 -16 29 -6 52
-25 30 -25 -19 0 -130 60 -130 70 0 23 -63 67 -180 126 -25 13 -40 23 -33 23
6 1 50 -19 97 -43 70 -35 86 -40 86 -27 0 9 -4 21 -9 27 -15 15 -25 58 -12 50
6 -4 11 -13 11 -20z m1110 9 c8 5 73 -26 392 -185 l157 -78 9 27 c5 15 16 34
24 42 13 13 48 69 91 143 9 17 17 24 17 15 0 -9 -22 -50 -49 -91 -79 -120 -93
-149 -95 -200 0 -26 -5 -48 -10 -48 -5 0 -6 24 -3 53 l6 52 -142 69 c-78 38
-196 95 -261 128 -65 32 -125 57 -132 54 -8 -3 -14 0 -14 7 0 8 -4 6 -10 -3
-11 -18 -13 -9 -3 16 4 11 8 13 11 6 2 -7 7 -10 12 -7z m711 -22 c-12 -20 -14
-14 -5 12 4 9 9 14 11 11 3 -2 0 -13 -6 -23z m1109 11 c0 -8 -5 -12 -10 -9 -6
4 -8 11 -5 16 9 14 15 11 15 -7z m-804 -54 c-6 -27 -17 -55 -24 -62 -16 -16
-15 -6 4 42 9 22 14 49 11 59 -3 13 0 18 8 15 9 -4 9 -16 1 -54z m-29 7 c-6
-15 -18 -29 -26 -32 -11 -4 -11 -1 1 17 8 13 18 29 22 36 14 23 16 7 3 -21z
m-1752 -27 c4 -22 11 -40 16 -40 5 0 9 -11 9 -24 0 -14 5 -28 10 -31 6 -4 10
-12 9 -18 -3 -18 12 -91 22 -102 4 -6 11 -26 14 -44 3 -19 11 -43 16 -53 8
-15 8 -23 -1 -32 -6 -6 -11 -6 -10 -1 2 6 2 19 1 30 -2 19 -3 19 -21 -4 -11
-13 -20 -18 -20 -13 0 6 5 14 10 17 6 3 10 16 10 28 0 34 -24 127 -32 127 -5
0 -8 10 -8 22 0 12 -9 47 -19 77 -26 77 -34 114 -22 107 5 -3 12 -24 16 -46z
m763 39 c-2 -6 -8 -10 -13 -10 -5 0 -11 4 -13 10 -2 6 4 11 13 11 9 0 15 -5
13 -11z m-1438 -3 c0 -2 -9 -6 -20 -9 -11 -3 -20 -1 -20 4 0 5 9 9 20 9 11 0
20 -2 20 -4z m48 -7 c-2 -6 3 -14 11 -17 8 -3 11 0 7 7 -9 13 4 14 24 1 13 -8
12 -10 -4 -10 -20 0 -20 0 0 -15 21 -16 48 -20 39 -5 -3 5 7 5 25 -1 16 -6 32
-15 35 -20 8 -11 -45 -24 -54 -13 -3 5 -28 20 -56 34 -27 14 -52 26 -54 27 -1
1 0 6 4 12 8 14 26 14 23 0z m3257 -9 c17 -11 25 -20 19 -20 -16 0 -64 24 -64
33 0 12 13 8 45 -13z m-3361 -34 c-3 -9 -12 -16 -20 -16 -11 0 -10 4 3 20 19
22 26 21 17 -4z m2923 4 c-1 -11 -5 -20 -9 -20 -4 0 -8 -10 -8 -22 0 -12 -3
-19 -6 -16 -8 8 7 78 16 78 5 0 8 -9 7 -20z m365 -4 c7 4 8 2 4 -4 -4 -7 -13
-12 -20 -12 -7 0 -18 -12 -25 -26 -6 -15 -14 -25 -16 -22 -2 2 5 24 18 49 15
30 23 39 25 26 2 -9 8 -14 14 -11z m84 -12 c-9 -8 -16 -29 -16 -45 0 -18 -5
-29 -14 -29 -8 0 -17 -6 -20 -12 -3 -7 -4 -4 -3 7 2 11 9 19 16 17 7 -1 11 5
10 15 -4 22 18 63 32 63 6 0 3 -7 -5 -16z m-1871 -30 c3 -20 2 -41 -3 -46 -6
-6 -8 1 -6 19 4 23 3 25 -5 8 -7 -16 -8 -12 -8 18 1 47 13 48 22 1z m950 26
c3 -5 1 -10 -4 -10 -6 0 -11 5 -11 10 0 6 2 10 4 10 3 0 8 -4 11 -10z m194
-39 c-6 -17 -9 -40 -6 -51 3 -11 1 -18 -4 -14 -13 8 -11 61 3 84 17 27 20 19
7 -19z m61 20 c-5 -11 -10 -31 -10 -44 0 -13 -9 -32 -20 -42 -11 -10 -20 -13
-20 -8 0 6 7 16 15 23 8 7 15 23 15 35 0 30 10 55 21 55 6 0 5 -8 -1 -19z
m-2690 -11 c0 -12 -7 -20 -17 -20 -15 0 -16 2 -3 10 13 9 13 11 0 20 -13 8
-12 10 3 10 10 0 17 -8 17 -20z m265 11 c3 -5 -3 -11 -12 -13 -12 -2 0 -13 37
-31 30 -15 44 -25 30 -21 -14 3 -41 15 -62 27 -29 16 -34 22 -25 33 14 16 24
17 32 5z m2220 -11 c-3 -5 -12 -10 -18 -10 -7 0 -6 4 3 10 19 12 23 12 15 0z
m728 -87 c-52 -112 -50 -110 -63 -97 -6 6 0 30 18 67 16 32 31 55 34 51 4 -3
16 12 28 35 39 78 29 41 -17 -56z m-3117 46 c76 -39 107 -59 90 -59 -11 0 -70
34 -74 43 -2 4 -9 7 -15 7 -16 0 -86 34 -87 43 0 11 1 10 86 -34z m260 6 c38
-19 63 -35 57 -35 -17 0 -122 50 -129 61 -8 13 -3 12 72 -26z m2185 9 c17 -8
29 -18 26 -20 -3 -3 -22 4 -44 15 -21 11 -32 20 -25 21 7 0 27 -7 43 -16z
m339 -8 c0 -2 -8 -21 -17 -42 -9 -22 -17 -43 -17 -49 -3 -24 -31 -85 -40 -85
-22 0 15 -23 123 -75 61 -30 118 -55 126 -55 20 0 27 -17 10 -24 -8 -3 -17 -1
-20 5 -4 5 -36 23 -73 40 -114 52 -157 74 -160 82 -2 4 -9 7 -15 7 -15 0 -139
61 -134 66 2 3 27 -7 55 -21 59 -29 81 -31 88 -7 3 9 9 24 13 32 4 8 16 41 26
73 11 31 23 57 27 57 4 0 8 -2 8 -4z m-2873 -38 c-3 -7 -5 -2 -5 12 0 14 2 19
5 13 2 -7 2 -19 0 -25z m2588 22 c3 -5 1 -10 -4 -10 -6 0 -11 5 -11 10 0 6 2
10 4 10 3 0 8 -4 11 -10z m685 -34 c-5 -13 -6 -27 -3 -30 4 -3 1 -6 -4 -6 -9
0 -45 -54 -120 -184 l-13 -21 0 23 c0 12 4 22 8 22 5 0 14 10 21 23 6 12 17
31 24 42 7 11 29 50 50 88 40 69 53 85 37 43z m-1776 -163 c4 -70 3 -113 -3
-113 -10 0 -20 62 -18 110 0 14 -3 38 -8 54 -6 21 -5 27 4 22 7 -5 11 3 11 24
0 18 -4 29 -10 25 -12 -7 -13 15 -3 42 10 26 19 -28 27 -164z m-1084 141 c0
-2 -9 0 -20 6 -11 6 -20 13 -20 16 0 2 9 0 20 -6 11 -6 20 -13 20 -16z m-366
-59 c0 -18 -7 -39 -14 -47 -8 -9 -35 -43 -60 -77 -81 -111 -140 -184 -140
-173 0 6 19 34 43 64 23 29 60 78 82 108 22 30 42 57 45 60 13 13 30 52 30 70
0 11 -8 33 -17 48 l-17 27 24 -24 c15 -16 24 -36 24 -56z m2626 59 c0 -8 -4
-12 -10 -9 -5 3 -10 10 -10 16 0 5 5 9 10 9 6 0 10 -7 10 -16z m-2390 -34 c25
-15 66 -35 92 -45 26 -9 53 -24 59 -31 15 -18 -2 -18 -27 1 -10 8 -27 15 -36
15 -10 0 -18 5 -18 10 0 6 -6 10 -14 10 -16 0 -89 40 -94 52 -2 4 -9 5 -16 2
-7 -3 -18 2 -25 10 -10 12 -8 13 11 8 13 -3 43 -17 68 -32z m175 30 c-27 -12
-43 -12 -25 0 8 5 22 9 30 9 10 0 8 -3 -5 -9z m2838 -15 c-3 -9 -8 -14 -10
-11 -3 3 -2 9 2 15 9 16 15 13 8 -4z m-629 -16 c-6 -11 -24 -2 -24 11 0 5 7 7
15 4 8 -4 12 -10 9 -15z m-2130 -29 c16 0 30 -26 42 -78 4 -21 3 -24 -5 -12
-9 13 -11 12 -11 -4 0 -33 -11 -11 -14 30 -6 61 -47 69 -69 14 -5 -13 -5 -13
-6 0 0 8 6 23 14 33 7 11 11 26 8 35 -4 15 -3 15 10 0 8 -10 22 -18 31 -18z
m1518 8 c-19 -19 -14 -35 13 -42 14 -4 25 -11 25 -16 0 -5 -15 -2 -34 7 -24
11 -33 21 -29 32 9 23 25 42 31 36 3 -3 0 -11 -6 -17z m283 2 c3 -5 2 -10 -4
-10 -5 0 -13 5 -16 10 -3 6 -2 10 4 10 5 0 13 -4 16 -10z m301 -17 c-10 -10
-19 5 -10 18 6 11 8 11 12 0 2 -7 1 -15 -2 -18z m634 -3 c-6 -12 -9 -29 -5
-38 3 -9 3 -13 -1 -9 -4 4 -14 1 -22 -6 -13 -10 -14 -9 -4 8 7 11 17 33 22 49
6 16 13 26 16 23 3 -3 0 -15 -6 -27z m-990 0 c-6 -11 -13 -20 -16 -20 -2 0 0
9 6 20 6 11 13 20 16 20 2 0 0 -9 -6 -20z m215 -58 c22 -11 48 -23 58 -26 9
-3 16 -13 16 -23 -1 -17 -2 -17 -6 0 -3 10 -11 16 -18 14 -7 -3 -16 -2 -21 3
-14 13 -127 70 -140 70 -6 0 -17 7 -24 15 -12 15 45 -8 135 -53z m-2402 -1
c13 -27 19 -47 12 -45 -7 3 -18 23 -25 45 -7 21 -17 39 -22 39 -4 0 -8 5 -8
11 0 20 18 -2 43 -50z m2537 23 c8 -20 6 -34 -5 -57 -8 -16 -15 -42 -15 -57 0
-14 -4 -30 -9 -35 -5 -6 -12 -21 -14 -35 -3 -14 -4 -9 -2 10 2 19 9 55 15 80
22 87 23 102 9 111 -11 7 -11 9 -1 9 7 0 17 -12 22 -26z m17 4 c-3 -8 -6 -5
-6 6 -1 11 2 17 5 13 3 -3 4 -12 1 -19z m494 7 c9 6 3 -15 -17 -53 -8 -16 -14
-19 -17 -10 -3 7 -6 1 -6 -14 -1 -20 -6 -28 -18 -28 -12 0 -14 3 -7 8 6 4 15
22 19 41 5 21 10 29 15 21 11 -18 23 5 16 33 -3 12 -3 16 0 9 3 -6 10 -10 15
-7z m-864 -25 c15 -22 3 -105 -17 -123 -10 -10 -11 -8 -6 8 15 40 19 115 7
115 -6 0 -11 5 -11 10 0 16 14 11 27 -10z m313 -10 c-6 -12 -14 -19 -17 -17
-2 3 1 15 7 27 6 12 14 19 17 17 2 -3 -1 -15 -7 -27z m-464 5 c17 -16 14 -18
-10 -9 -9 3 -16 10 -16 15 0 13 9 11 26 -6z m111 -17 c-3 -8 -6 -5 -6 6 -1 11
2 17 5 13 3 -3 4 -12 1 -19z m-1757 -22 c0 -12 4 -26 8 -31 15 -17 55 -126 48
-132 -3 -3 -6 -1 -6 5 0 6 -13 40 -28 74 -34 74 -48 123 -32 113 5 -3 10 -16
10 -29z m1539 -8 l-2 -43 -7 35 c-4 19 -8 29 -9 21 0 -8 -4 -11 -7 -8 -6 6 13
37 22 37 2 0 3 -19 3 -42z m-772 -15 c-3 -10 -5 -2 -5 17 0 19 2 27 5 18 2
-10 2 -26 0 -35z m973 5 c0 -27 -22 -75 -27 -60 -3 8 0 19 6 25 12 12 15 51 3
43 -4 -2 -19 4 -32 14 l-24 18 37 -11 c23 -8 37 -18 37 -29z m1008 -10 c-5
-18 -12 -42 -15 -53 -3 -11 -12 -28 -21 -37 -8 -10 -12 -26 -9 -37 3 -11 0
-22 -6 -24 -5 -1 -16 -23 -23 -48 -22 -80 -41 -122 -47 -106 -3 8 1 24 9 35 7
11 15 28 17 39 2 10 7 25 10 33 3 8 14 39 23 68 9 29 20 55 25 57 4 3 6 12 2
21 -3 8 2 23 11 33 9 10 13 21 9 25 -6 5 12 25 24 26 1 0 -3 -15 -9 -32z
m-689 -72 c-9 -8 -10 -7 -5 7 3 10 7 33 8 50 1 28 2 28 5 -7 3 -22 -1 -43 -8
-50z m-2382 6 c1 -8 6 -18 12 -21 6 -4 17 -23 26 -44 14 -35 14 -37 -2 -37
-31 0 -61 12 -67 25 -3 9 2 11 15 8 10 -3 19 -9 19 -14 0 -5 7 -9 15 -9 8 0
15 5 15 10 0 6 -5 10 -11 10 -5 0 -7 5 -3 11 3 6 3 14 -2 18 -14 9 -43 58 -54
89 l-10 27 22 -29 c12 -17 23 -36 25 -44z m472 -12 c0 -8 -8 1 -19 20 -11 19
-19 42 -19 50 0 8 8 -1 19 -20 11 -19 19 -42 19 -50z m187 69 c8 -13 55 -178
57 -196 0 -7 4 -13 9 -13 5 0 8 -6 7 -12 -3 -17 8 -57 42 -157 16 -46 28 -89
25 -95 -4 -13 -6 -9 -38 94 -17 53 -28 74 -38 72 -11 -3 -12 -1 -4 8 9 9 6 31
-9 88 -12 42 -25 79 -29 80 -5 2 -6 7 -3 12 2 4 -4 32 -14 61 l-18 54 -26 -40
c-14 -22 -36 -51 -47 -65 -18 -21 -18 -18 4 19 14 25 32 53 40 63 9 10 16 23
16 28 0 13 17 13 26 -1z m451 -31 c-3 -8 -6 -5 -6 6 -1 11 2 17 5 13 3 -3 4
-12 1 -19z m730 -10 c-3 -7 -5 -2 -5 12 0 14 2 19 5 13 2 -7 2 -19 0 -25z
m1128 3 c-3 -6 -11 -8 -17 -5 -7 5 -9 1 -5 -9 6 -17 -19 -44 -30 -33 -4 4 -3
10 3 14 6 4 13 15 17 25 4 11 12 15 19 11 8 -5 9 -2 4 12 -5 14 -4 16 5 7 6
-6 8 -16 4 -22z m-2525 -26 c0 -5 -5 -3 -10 5 -5 8 -10 20 -10 25 0 6 5 3 10
-5 5 -8 10 -19 10 -25z m675 -37 c3 -24 7 -59 8 -80 1 -20 5 -34 10 -31 10 6
9 -9 -2 -26 -8 -12 -11 -9 -16 11 -4 15 -4 36 0 48 4 11 2 27 -4 33 -15 18
-27 102 -14 94 6 -4 14 -26 18 -49z m915 -43 c-7 -24 -9 -52 -6 -63 4 -11 2
-23 -4 -27 -5 -3 -10 -14 -10 -23 0 -13 7 -9 26 13 16 19 21 22 15 9 -16 -33
-124 -139 -129 -126 -2 7 -10 12 -17 12 -21 0 -65 22 -65 32 0 5 10 2 23 -6
12 -7 34 -16 49 -20 22 -5 30 -1 45 24 9 16 24 30 32 30 8 0 12 3 8 6 -3 4 0
21 8 39 7 19 11 36 8 39 -4 3 0 39 8 78 8 43 15 63 17 49 2 -13 -2 -43 -8 -66z
m60 10 c-7 -8 -8 -20 -4 -26 4 -8 3 -9 -4 -5 -14 8 -16 36 -3 36 5 0 9 6 8 13
0 6 1 23 3 37 3 21 4 20 7 -8 3 -18 -1 -40 -7 -47z m-750 43 c0 -19 -2 -20
-10 -8 -13 19 -13 30 0 30 6 0 10 -10 10 -22z m507 -25 c-3 -10 -5 -2 -5 17 0
19 2 27 5 18 2 -10 2 -26 0 -35z m-1389 12 c-3 -3 -9 2 -12 12 -6 14 -5 15 5
6 7 -7 10 -15 7 -18z m172 12 c0 -18 38 -137 50 -159 6 -10 12 -35 15 -55 3
-29 2 -34 -6 -20 -6 9 -12 25 -14 35 -2 9 -18 57 -34 105 -34 97 -36 107 -21
107 6 0 10 -6 10 -13z m-680 -29 c0 -5 -4 -8 -10 -8 -5 0 -10 5 -10 10 0 23
-39 8 -64 -24 -14 -19 -26 -37 -26 -40 0 -3 -11 -17 -24 -32 -44 -49 -52 -60
-73 -103 -12 -25 -24 -38 -28 -31 -4 6 0 19 9 29 22 24 21 32 -14 91 -29 50
-31 70 -7 70 8 0 8 -3 0 -11 -8 -8 -5 -20 12 -45 13 -19 25 -40 28 -47 7 -19
49 24 44 45 -4 12 0 18 11 18 10 0 31 21 47 46 17 25 39 49 50 53 19 8 55 -6
55 -21z m1877 0 c-3 -7 -5 -2 -5 12 0 14 2 19 5 13 2 -7 2 -19 0 -25z m543 12
c-6 -11 -7 -20 -3 -20 4 0 2 -5 -5 -12 -7 -7 -12 -21 -12 -32 0 -18 -11 -59
-30 -111 -13 -37 -31 -110 -31 -128 0 -9 -5 -15 -10 -11 -6 3 -7 13 -4 23 4 9
9 27 11 41 6 35 53 210 66 243 6 15 15 27 20 27 5 0 4 -9 -2 -20z m525 -34
c-11 -19 -23 -32 -28 -29 -5 3 2 16 14 29 12 13 19 24 15 24 -4 0 -4 5 -1 11
4 6 10 8 13 5 3 -3 -3 -21 -13 -40z m-1415 14 c14 -11 30 -20 37 -20 6 0 40
-16 75 -35 35 -19 89 -47 121 -61 31 -15 55 -29 52 -33 -7 -6 -324 151 -325
162 0 12 14 8 40 -13z m-117 -64 c-20 -32 -39 -53 -41 -48 -2 6 6 20 17 31 12
12 21 28 21 36 0 8 4 15 9 15 5 0 13 10 17 23 4 12 9 17 11 11 2 -6 -13 -37
-34 -68z m1036 -5 c-13 -46 -39 -104 -39 -87 0 5 4 23 10 40 5 17 15 53 22 80
7 27 15 41 16 31 2 -10 -2 -38 -9 -64z m-1049 48 c0 -11 -4 -17 -10 -14 -5 3
-10 13 -10 21 0 8 5 14 10 14 6 0 10 -9 10 -21z m-799 -49 c6 0 7 -5 3 -11 -3
-6 -2 -14 3 -18 6 -3 13 -19 17 -35 6 -26 6 -27 -9 -12 -9 9 -13 20 -10 26 3
5 3 10 0 10 -10 0 -30 -22 -50 -57 -19 -32 -35 -43 -35 -23 0 6 5 10 10 10 6
0 10 5 10 10 0 6 11 23 25 38 29 31 33 54 8 45 -22 -8 -43 -28 -43 -41 0 -5
-8 -17 -19 -26 -18 -16 -21 -16 -57 5 -22 12 -69 38 -106 57 -37 20 -66 37
-64 39 5 5 167 -77 189 -95 9 -8 18 -13 20 -11 2 2 15 20 29 40 15 20 25 39
22 42 -3 3 3 12 15 19 12 7 22 22 23 33 0 11 3 5 5 -12 2 -18 9 -33 14 -33z
m1286 8 c-2 -13 -4 -5 -4 17 -1 22 1 32 4 23 2 -10 2 -28 0 -40z m-1655 20
c-7 -7 -12 -8 -12 -2 0 14 12 26 19 19 2 -3 -1 -11 -7 -17z m250 -61 c5 -11 7
-21 4 -24 -7 -7 -46 73 -45 94 0 11 7 4 16 -17 8 -19 20 -43 25 -53z m-677 50
c12 -10 14 -16 7 -21 -7 -4 -12 -2 -12 3 0 6 -7 11 -15 11 -8 0 -15 5 -15 10
0 14 13 13 35 -3z m315 9 c0 -11 -19 -15 -25 -6 -3 5 1 10 9 10 9 0 16 -2 16
-4z m1747 -28 c-3 -7 -5 -2 -5 12 0 14 2 19 5 13 2 -7 2 -19 0 -25z m-1661
-13 c-6 -22 -10 -24 -21 -15 -12 10 -11 14 3 29 22 22 26 19 18 -14z m1910 8
c-10 -10 -19 5 -10 18 6 11 8 11 12 0 2 -7 1 -15 -2 -18z m98 0 c60 -32 86
-52 86 -67 0 -6 -4 -6 -8 2 -5 7 -42 30 -83 52 -41 22 -68 40 -60 40 7 0 36
-12 65 -27z m-2067 11 c-3 -3 -12 -4 -19 -1 -8 3 -5 6 6 6 11 1 17 -2 13 -5z
m2743 -36 c-6 -13 -13 -31 -16 -40 -4 -10 -13 -18 -21 -18 -9 0 -13 -6 -9 -15
3 -8 1 -15 -4 -15 -6 0 -10 -6 -10 -12 0 -15 -39 -68 -40 -55 0 8 29 64 76
144 22 37 38 45 24 11z m-1000 4 c0 -5 -7 -9 -15 -9 -8 0 -15 4 -15 9 0 4 7 8
15 8 8 0 15 -4 15 -8z m-1595 -43 c12 -12 7 -11 -40 5 -21 8 -41 19 -43 25 -4
11 66 -14 83 -30z m1062 -1 c-3 -8 -6 -5 -6 6 -1 11 2 17 5 13 3 -3 4 -12 1
-19z m523 13 c0 -5 3 -18 6 -28 5 -16 4 -16 -10 1 -18 23 -20 36 -6 36 6 0 10
-4 10 -9z m-1690 -17 c0 -8 -5 -12 -10 -9 -6 4 -8 11 -5 16 9 14 15 11 15 -7z
m1008 -77 c1 -49 -7 -43 -12 9 -3 21 -7 48 -11 59 -5 14 -2 13 8 -4 8 -14 15
-42 15 -64z m1092 48 c0 -5 -5 -3 -10 5 -5 8 -10 20 -10 25 0 6 5 3 10 -5 5
-8 10 -19 10 -25z m-2040 5 c0 -11 -2 -20 -4 -20 -2 0 -6 9 -9 20 -3 11 -1 20
4 20 5 0 9 -9 9 -20z m169 -35 c29 -16 48 -31 41 -33 -7 -3 -15 -1 -19 4 -3 5
-34 23 -68 39 -35 17 -63 33 -63 37 0 9 39 -8 109 -47z m1435 43 c-3 -4 0 -8
7 -8 7 0 10 -2 7 -5 -7 -7 -38 5 -38 14 0 4 7 8 15 8 8 0 12 -4 9 -9z m-1733
-81 c-27 -41 -58 -77 -67 -81 -11 -4 -8 3 9 20 15 15 27 30 27 35 0 4 6 14 13
21 7 7 23 30 36 51 13 21 25 36 28 33 3 -2 -18 -38 -46 -79z m1359 29 c47 -22
87 -43 90 -46 3 -3 18 -11 34 -18 16 -7 26 -15 24 -18 -3 -2 -59 23 -124 56
-65 33 -124 60 -131 60 -6 0 -15 5 -19 11 -10 17 28 3 126 -45z m-830 12 c16
-42 29 -119 19 -113 -3 3 -9 -5 -12 -17 -4 -12 -9 -20 -11 -17 -3 3 -1 19 5
35 12 32 -3 114 -21 114 -6 0 -10 7 -10 15 0 26 18 16 30 -17z m1616 -54 c-4
-18 -11 -34 -15 -34 -5 0 -3 18 3 41 8 32 8 42 -3 48 -8 5 -10 14 -5 22 12 21
27 -36 20 -77z m139 42 c-9 -20 -13 -41 -10 -45 2 -5 -2 -14 -10 -21 -8 -7
-15 -9 -15 -5 0 16 24 91 33 103 17 22 18 6 2 -32z m-1045 6 c0 -8 -1 -13 -3
-11 -1 2 -9 12 -16 22 -12 15 -12 17 3 11 9 -3 16 -13 16 -22z m1627 -4 c-3
-7 -5 -2 -5 12 0 14 2 19 5 13 2 -7 2 -19 0 -25z m-2706 -18 c5 0 9 -7 9 -16
0 -14 -2 -14 -15 0 -8 8 -14 23 -14 33 1 17 2 17 6 1 2 -10 9 -18 14 -18z
m230 1 c-10 -18 14 -119 32 -132 5 -3 9 -13 11 -22 1 -10 11 -24 22 -32 13
-11 14 -14 4 -13 -8 2 -18 7 -22 12 -3 5 -13 2 -22 -6 -8 -9 -12 -19 -8 -22 3
-4 -2 -4 -11 0 -17 6 -16 8 3 21 22 15 25 33 11 61 -8 16 -13 27 -38 92 -7 17
-7 31 1 43 15 23 29 22 17 -2z m1729 4 c0 -8 -4 -15 -8 -15 -5 0 -14 -10 -21
-22 -50 -94 -145 -237 -154 -231 -5 3 -5 8 0 12 16 10 129 192 139 224 4 9 10
17 15 17 5 0 9 7 9 15 0 8 5 15 10 15 6 0 10 -7 10 -15z m-1517 -14 c-3 -11
-14 -28 -26 -38 -21 -18 -21 -18 -6 7 9 14 19 31 23 38 11 18 15 15 9 -7z
m-896 -59 c24 -28 29 -42 15 -42 -5 0 -21 24 -36 53 -15 28 -21 44 -14 34 7
-10 23 -31 35 -45z m19 48 c12 -12 93 -58 117 -66 9 -4 17 -10 17 -15 0 -5
-26 4 -58 21 -64 35 -112 69 -96 70 5 0 14 -4 20 -10z m3134 6 c0 -20 -24 -65
-33 -59 -6 4 -8 0 -4 -11 6 -16 -11 -56 -24 -56 -9 0 15 68 29 82 7 7 12 20
12 30 0 10 5 18 10 18 6 0 10 -2 10 -4z m-1763 -98 c2 -34 2 -60 -1 -57 -3 3
-8 34 -11 69 -3 35 -2 61 1 57 3 -3 8 -34 11 -69z m1555 45 c-10 -16 -26 -45
-35 -65 -10 -20 -22 -40 -26 -43 -5 -3 -12 -19 -16 -35 -4 -17 -11 -30 -16
-30 -12 0 -12 17 1 25 18 11 10 23 -19 30 -16 3 -35 13 -42 21 -15 18 -4 18
24 -1 31 -20 60 -10 77 28 19 44 53 97 63 97 5 0 0 -12 -11 -27z m-2462 9 c0
-5 10 -14 23 -20 15 -7 17 -11 6 -11 -9 -1 -24 8 -34 19 -10 11 -13 20 -7 20
7 0 12 -4 12 -8z m2154 -17 c20 -14 44 -22 53 -19 16 5 16 4 2 -5 -12 -8 -28
-5 -62 12 -26 12 -47 25 -47 30 0 13 16 8 54 -18z m-1103 -4 c6 9 9 -9 9 -50
0 -35 -3 -61 -7 -57 -4 4 -6 24 -4 45 1 22 -2 42 -8 46 -6 3 -10 14 -10 23 1
14 2 14 6 -2 4 -15 7 -16 14 -5z m304 -1 c3 -5 15 -10 25 -10 10 0 20 -3 22
-7 4 -9 153 -83 167 -83 5 0 11 -3 13 -7 2 -5 38 -26 80 -48 42 -22 75 -41 73
-44 -2 -2 -51 20 -107 49 -233 120 -274 140 -285 140 -7 0 -13 5 -13 10 0 6 4
10 9 10 6 0 13 -4 16 -10z m657 -32 c-3 -18 -10 -36 -16 -40 -6 -4 -12 -12
-12 -18 -1 -5 -2 -15 -3 -22 0 -6 -4 -9 -7 -5 -9 9 7 68 17 61 5 -3 9 11 9 31
0 20 4 34 8 31 5 -3 7 -20 4 -38z m-2028 17 c-4 -8 -8 -15 -10 -15 -2 0 -4 7
-4 15 0 8 4 15 10 15 5 0 7 -7 4 -15z m1952 -12 c-3 -16 -8 -40 -10 -54 -2
-14 -13 -55 -25 -90 -11 -35 -26 -86 -32 -113 -7 -28 -14 -45 -16 -40 -2 6 6
46 17 90 12 43 28 108 35 144 17 75 22 90 30 90 4 0 4 -12 1 -27z m-1844 -13
c6 0 8 -3 5 -7 -4 -3 0 -15 10 -25 22 -24 12 -23 -17 2 -13 11 -19 20 -14 20
5 0 1 5 -8 11 -10 5 -18 15 -18 20 0 6 7 3 16 -5 8 -9 20 -16 26 -16z m1955 8
c-3 -8 -6 -5 -6 6 -1 11 2 17 5 13 3 -3 4 -12 1 -19z m-2087 0 c0 -7 -11 -31
-25 -53 -29 -47 -29 -17 0 33 21 35 25 38 25 20z m90 -18 c0 -5 -9 -6 -20 -3
-13 4 -22 -1 -26 -13 -4 -11 -25 -44 -47 -74 -54 -73 -57 -76 -57 -63 0 6 16
32 35 57 19 25 32 46 29 46 -3 0 9 15 25 33 17 17 31 36 31 41 0 5 7 3 15 -4
8 -7 15 -16 15 -20z m-312 -5 c0 -20 -3 -23 -12 -11 -6 7 -20 18 -31 24 -18
10 -17 11 11 12 27 0 32 -4 32 -25z m2499 19 c-3 -3 -12 -4 -19 -1 -8 3 -5 6
6 6 11 1 17 -2 13 -5z m-2653 -42 c3 -9 30 -52 61 -96 41 -56 54 -81 46 -89
-8 -8 -11 -7 -11 2 0 14 -110 184 -122 189 -5 2 -8 8 -8 13 0 14 28 -1 34 -19z
m2691 18 c3 -5 2 -10 -4 -10 -5 0 -13 5 -16 10 -3 6 -2 10 4 10 5 0 13 -4 16
-10z m-1725 -26 c0 -14 -4 -23 -9 -20 -5 3 -7 15 -4 26 7 28 13 25 13 -6z
m-450 -93 c0 -9 -8 0 -16 19 -9 19 -20 43 -25 52 -5 10 -9 23 -9 30 0 7 11 -9
25 -36 14 -27 25 -57 25 -65z m44 94 c-4 -8 -8 -15 -10 -15 -2 0 -4 7 -4 15 0
8 4 15 10 15 5 0 7 -7 4 -15z m159 -10 c-7 -21 -13 -19 -13 6 0 11 4 18 10 14
5 -3 7 -12 3 -20z m1795 -34 c23 -8 42 -21 42 -29 0 -10 -5 -10 -22 2 -12 9
-29 16 -36 16 -15 0 -36 19 -45 40 -3 8 -6 -2 -6 -22 -1 -21 -5 -38 -9 -38 -4
0 -13 -24 -19 -53 -13 -63 -53 -137 -53 -99 0 12 5 22 10 22 6 0 10 16 10 35
0 25 -4 35 -16 35 -8 0 -12 5 -9 11 5 7 13 5 25 -6 16 -15 18 -15 24 0 3 9 6
27 6 40 0 13 5 27 10 30 6 4 8 11 4 16 -3 5 2 22 12 37 l18 27 6 -24 c4 -17
18 -29 48 -40z m501 3 c-12 -27 -26 -57 -30 -66 -5 -10 -9 -27 -9 -38 0 -11
-5 -20 -11 -20 -5 0 -8 -4 -5 -8 6 -11 -18 -83 -51 -152 -34 -70 -125 -221
-130 -216 -5 4 28 65 68 124 16 24 29 45 29 47 0 3 13 32 29 64 16 33 27 62
25 64 -2 2 3 24 12 48 9 24 17 49 18 54 3 12 14 42 26 70 18 44 23 60 21 68
-1 5 3 6 9 2 5 -3 10 -1 10 6 0 7 2 10 5 7 3 -3 -4 -28 -16 -54z m-2416 31 c0
-6 -8 -11 -19 -12 -10 -2 -13 0 -6 3 6 3 9 10 6 16 -4 6 -1 9 5 7 7 -3 13 -9
14 -14z m-397 -41 c27 -56 10 -53 -22 4 -15 27 -19 42 -11 42 6 -1 22 -21 33
-46z m1148 -53 c-3 -3 -9 0 -15 6 -6 6 -7 25 -3 49 l8 39 7 -45 c3 -25 5 -47
3 -49z m-1042 51 c-7 -2 -12 -8 -12 -14 0 -5 -9 -21 -20 -35 -14 -18 -20 -21
-20 -10 0 9 6 20 13 24 6 4 19 21 27 36 8 17 16 24 19 16 2 -7 -1 -15 -7 -17z
m612 -21 c-15 -23 -29 -39 -31 -37 -3 2 8 23 23 45 15 23 29 39 31 37 3 -2 -8
-23 -23 -45z m69 17 c9 -36 4 -49 -38 -111 -56 -80 -62 -71 -10 14 34 56 42
76 35 90 -12 22 -12 29 -1 29 5 0 11 -10 14 -22z m499 -3 c-2 -14 -8 -25 -13
-25 -12 0 -11 7 1 31 14 26 18 24 12 -6z m-794 -5 c7 -11 18 -20 25 -20 12 0
67 -39 56 -40 -14 0 -98 48 -92 54 3 3 -5 6 -18 6 -19 0 -21 2 -9 10 21 13 23
13 38 -10z m1712 10 c0 -5 -2 -10 -4 -10 -3 0 -8 5 -11 10 -3 6 -1 10 4 10 6
0 11 -4 11 -10z m-20 -24 c0 -8 -4 -18 -10 -21 -5 -3 -10 3 -10 14 0 12 5 21
10 21 6 0 10 -6 10 -14z m367 -113 c-18 -56 -36 -105 -41 -110 -5 -5 -6 3 -2
17 4 14 8 30 10 35 11 39 47 149 52 157 16 26 10 -7 -19 -99z m-1260 30 c-10
-10 -16 0 -22 38 l-6 34 17 -32 c10 -18 14 -36 11 -40z m1133 57 c8 -5 12 -11
10 -14 -3 -2 -14 2 -24 10 -22 15 -10 19 14 4z m-2093 -32 c-3 -8 -6 -5 -6 6
-1 11 2 17 5 13 3 -3 4 -12 1 -19z m2163 -21 c0 -6 -9 -2 -20 8 -11 10 -20 23
-20 28 0 6 9 2 20 -8 11 -10 20 -23 20 -28z m-1848 13 c10 0 18 5 18 10 0 6 5
10 10 10 19 0 10 -17 -16 -28 -20 -10 -28 -9 -40 2 -8 8 -14 18 -14 22 0 5 5
3 12 -4 7 -7 20 -12 30 -12z m198 -8 c-7 -3 -19 3 -28 13 -16 15 -15 16 12 4
15 -7 23 -15 16 -17z m297 6 c-3 -8 -6 -5 -6 6 -1 11 2 17 5 13 3 -3 4 -12 1
-19z m798 -101 c-10 -50 -19 -104 -22 -119 -3 -16 -9 -28 -13 -28 -4 0 -3 19
2 43 5 23 14 67 18 97 19 112 24 135 28 117 2 -9 -4 -59 -13 -110z m-1881 98
c3 -8 1 -15 -3 -15 -5 0 -11 7 -15 15 -3 8 -1 15 3 15 5 0 11 -7 15 -15z m56
5 c0 -6 13 -31 29 -57 25 -40 27 -48 15 -60 -18 -18 -18 -19 7 -59 11 -19 17
-34 12 -34 -4 0 -18 18 -30 40 -19 36 -20 42 -7 55 14 13 13 19 -8 54 -17 29
-28 37 -38 31 -11 -7 -11 -13 0 -40 8 -18 18 -29 26 -26 8 3 11 0 7 -10 -8
-20 -10 -19 -39 27 -24 39 -25 41 -7 55 16 12 16 15 3 24 -12 8 -11 10 8 10
12 0 22 -5 22 -10z m2042 -25 c-2 -14 -6 -25 -8 -25 -2 0 -4 11 -4 25 0 14 4
25 9 25 4 0 6 -11 3 -25z m-1802 1 c0 -7 -17 -26 -37 -42 -40 -29 -40 -28 17
37 19 22 20 22 20 5z m806 -16 c-1 -16 -5 -32 -8 -35 -4 -5 -4 52 1 63 5 11 9
-3 7 -28z m-496 10 c0 -5 -2 -10 -4 -10 -3 0 -8 5 -11 10 -3 6 -1 10 4 10 6 0
11 -4 11 -10z m227 4 c-3 -3 -12 -4 -19 -1 -8 3 -5 6 6 6 11 1 17 -2 13 -5z
m1590 -33 c-15 -74 -30 -121 -38 -121 -5 0 -4 12 2 27 11 29 6 53 -11 53 -6 0
-8 -5 -4 -12 4 -7 3 -8 -5 -4 -15 10 -3 29 15 22 7 -3 18 3 24 14 13 24 13 43
0 35 -11 -7 -14 8 -4 18 13 13 26 -6 21 -32z m-1187 9 c0 -11 -4 -20 -10 -20
-5 0 -7 7 -4 15 4 8 1 15 -5 15 -6 0 -11 -4 -11 -10 0 -5 -5 -10 -11 -10 -8 0
-8 5 1 15 18 21 40 19 40 -5z m-1360 0 c0 -5 -5 -10 -11 -10 -5 0 -7 5 -4 10
3 6 8 10 11 10 2 0 4 -4 4 -10z m1014 -5 c25 -19 9 -19 -24 0 -14 8 -19 14
-10 14 8 0 24 -6 34 -14z m-1049 -15 c17 -18 17 -20 2 -14 -9 3 -17 11 -17 16
0 6 -16 -14 -36 -43 -37 -55 -76 -101 -58 -68 14 24 86 129 88 129 2 0 11 -9
21 -20z m485 -1 c0 -5 -4 -9 -10 -9 -5 0 -10 5 -10 11 0 5 -5 7 -12 3 -7 -4
-8 -3 -4 4 7 12 36 5 36 -9z m300 0 c0 -6 -4 -7 -10 -4 -5 3 -10 11 -10 16 0
6 5 7 10 4 6 -3 10 -11 10 -16z m-744 -25 c-14 -10 -14 -14 -4 -26 7 -8 18
-22 23 -32 6 -10 39 -33 74 -52 35 -19 56 -34 47 -34 -31 0 -120 60 -149 100
-26 37 -27 39 -7 45 11 3 20 14 21 23 0 13 2 14 6 3 3 -8 -2 -20 -11 -27z
m2191 -61 c-21 -37 -23 -38 -33 -21 -4 7 -3 8 4 4 7 -4 12 -4 13 1 3 28 8 61
12 78 3 11 6 25 8 30 1 6 5 -6 8 -25 5 -25 1 -44 -12 -67z m-1093 48 c-6 -6
-64 21 -64 30 0 5 15 1 34 -9 19 -9 32 -19 30 -21z m132 -10 c-1 -57 -10 -75
-13 -28 -2 31 4 77 11 77 1 0 2 -22 2 -49z m65 22 c-8 -15 -10 -15 -11 -2 0
17 10 32 18 25 2 -3 -1 -13 -7 -23z m-814 -15 c-9 -6 -8 -8 3 -8 16 0 42 -34
46 -59 3 -17 -26 -71 -38 -71 -5 0 -2 11 7 23 21 33 7 97 -21 97 -8 0 -14 4
-14 9 0 5 -3 17 -6 26 -6 15 -4 15 14 4 15 -10 18 -16 9 -21z m883 12 c-6 -11
-13 -20 -15 -20 -3 0 -5 9 -5 20 0 11 7 20 15 20 13 0 14 -4 5 -20z m-1295 0
c-3 -5 -11 -10 -16 -10 -6 0 -7 5 -4 10 3 6 11 10 16 10 6 0 7 -4 4 -10z m684
-7 c-7 -10 -24 -30 -37 -45 -13 -14 -23 -29 -23 -32 1 -4 -5 -16 -14 -29 -9
-12 -37 -55 -62 -96 -26 -41 -48 -70 -50 -64 -4 11 55 105 69 111 24 10 3 39
-44 61 -28 14 -46 27 -40 29 6 2 32 -9 58 -24 29 -17 48 -23 52 -17 28 45 89
123 96 123 5 0 2 -8 -5 -17z m751 7 c0 -5 9 -10 19 -10 22 0 36 -16 23 -24 -5
-3 -18 1 -28 9 -29 22 -51 18 -63 -12 l-11 -28 6 30 c3 16 11 33 17 37 17 11
37 10 37 -2z m-1475 -10 c3 -5 1 -10 -4 -10 -6 0 -11 5 -11 10 0 6 2 10 4 10
3 0 8 -4 11 -10z m305 -9 c-10 -20 -30 -37 -30 -26 0 11 25 45 33 45 4 0 3 -9
-3 -19z m-215 -5 c19 -8 35 -18 35 -21 0 -3 -9 -1 -20 5 -11 6 -24 9 -29 6 -5
-3 -14 1 -21 9 -16 19 -8 19 35 1z m1159 5 c3 -5 -1 -14 -8 -20 -12 -10 -13
-8 -9 8 6 23 9 25 17 12z m-1219 -11 c3 -5 1 -10 -4 -10 -6 0 -11 5 -11 10 0
6 2 10 4 10 3 0 8 -4 11 -10z m1105 -7 c22 -10 40 -21 40 -25 0 -12 -6 -10
-47 13 -62 35 -59 40 7 12z m947 -30 c-3 -10 -5 -2 -5 17 0 19 2 27 5 18 2
-10 2 -26 0 -35z m-1866 10 c-12 -20 -14 -14 -5 12 4 9 9 14 11 11 3 -2 0 -13
-6 -23z m179 -39 c-21 -31 -28 -49 -20 -54 6 -4 12 -18 12 -31 1 -13 6 -30 11
-36 13 -17 -1 -16 -18 1 -10 9 -11 16 -3 24 11 11 -19 48 -57 70 -11 6 -17 13
-13 17 3 3 16 0 28 -7 19 -11 23 -10 36 7 8 11 21 28 29 38 8 9 15 23 16 30 0
9 2 9 6 0 2 -7 -10 -34 -27 -59z m1164 44 c-4 -6 -1 -9 7 -6 7 2 31 -6 53 -18
23 -12 65 -35 95 -50 29 -16 49 -30 43 -32 -5 -1 -33 11 -61 28 -29 16 -54 30
-57 30 -3 0 -18 9 -34 20 -15 11 -30 17 -33 14 -3 -3 -15 0 -26 8 -22 16 -19
30 5 21 8 -3 11 -10 8 -15z m549 -8 c3 -11 1 -18 -4 -14 -5 3 -9 12 -9 20 0
20 7 17 13 -6z m301 -37 c-16 -26 -36 -64 -44 -83 -13 -28 -17 -31 -23 -17 -4
12 -3 16 4 12 6 -4 9 -1 7 7 -1 7 8 28 20 46 13 18 25 39 26 46 2 18 27 48 34
42 2 -3 -8 -27 -24 -53z m-2304 26 c0 -6 7 -6 18 0 16 9 18 6 14 -20 -4 -29
-5 -29 -19 -9 -8 11 -20 20 -27 20 -7 0 -13 6 -13 14 0 8 6 12 14 9 7 -3 13
-9 13 -14z m145 1 c3 -5 1 -10 -4 -10 -6 0 -11 5 -11 10 0 6 2 10 4 10 3 0 8
-4 11 -10z m1105 -15 c4 3 13 -2 20 -10 15 -18 7 -19 -21 -5 -10 6 -18 18 -18
28 1 16 2 15 6 -1 2 -9 8 -15 13 -12z m141 -22 c30 -15 56 -31 59 -35 3 -3 18
-10 33 -13 15 -4 27 -11 27 -16 0 -9 -17 -2 -123 51 -56 27 -70 31 -77 19 -7
-10 -9 -8 -8 8 2 26 17 24 89 -14z m-1320 -3 c5 0 9 -6 9 -14 0 -21 28 -28 34
-8 3 10 4 7 3 -7 -2 -22 2 -24 52 -27 31 -1 60 -9 69 -18 13 -13 10 -13 -26
-1 -23 8 -48 12 -57 9 -20 -8 -85 23 -85 40 0 8 -7 19 -15 26 -8 7 -12 17 -8
24 5 7 9 5 11 -6 2 -10 8 -18 13 -18z m1871 -25 c-15 -24 -31 -45 -35 -45 -5
0 1 15 13 33 12 17 24 40 27 49 3 10 9 15 14 13 4 -3 -4 -26 -19 -50z m420 0
c-7 -14 -12 -34 -12 -43 0 -21 -22 -72 -31 -72 -3 0 3 36 15 80 13 52 23 77
30 70 6 -6 5 -18 -2 -35z m-2648 15 c-3 14 -3 22 1 18 12 -12 16 -68 4 -68 -6
0 -8 4 -5 9 3 5 -1 14 -9 21 -8 7 -15 20 -15 29 1 11 5 8 16 -9 l15 -25 -7 25z
m2695 -31 c-19 -12 -21 -5 -7 27 11 29 12 29 16 5 2 -13 -2 -27 -9 -32z
m-2362 9 c-3 -8 -6 -5 -6 6 -1 11 2 17 5 13 3 -3 4 -12 1 -19z m1258 13 c3 -5
1 -12 -5 -16 -5 -3 -10 1 -10 9 0 18 6 21 15 7z m-1535 -18 c0 -5 10 -13 23
-19 12 -6 72 -37 132 -69 61 -32 122 -64 137 -72 15 -8 30 -19 33 -24 4 -5 10
-7 15 -4 4 3 13 -2 20 -10 19 -23 4 -18 -58 17 -107 60 -257 138 -264 138 -5
0 -8 5 -8 10 0 6 -6 10 -13 10 -7 0 -22 7 -33 15 -17 13 -17 14 -1 15 9 0 17
-3 17 -7z m297 -19 c-3 -3 -12 -4 -19 -1 -8 3 -5 6 6 6 11 1 17 -2 13 -5z
m283 -9 c-7 -9 -15 -13 -19 -10 -3 3 1 10 9 15 21 14 24 12 10 -5z m1351 2
c19 -15 21 -47 2 -47 -8 0 -11 5 -8 11 4 5 -1 19 -11 30 -19 21 -8 25 17 6z
m129 -20 c0 -5 -4 -5 -10 -2 -5 3 -10 14 -10 23 0 15 2 15 10 2 5 -8 10 -19
10 -23z m561 -18 c-9 -23 -10 -22 -10 11 -1 23 2 31 9 24 7 -7 7 -19 1 -35z
m-2637 3 c10 -19 13 -43 9 -72 -5 -34 -8 -40 -14 -25 -4 11 -4 32 -2 47 3 17
-1 38 -11 53 -9 14 -12 25 -6 25 5 0 16 -13 24 -28z m1844 -8 c40 -22 55 -34
38 -30 -16 4 -41 16 -54 27 -14 10 -31 19 -38 19 -7 0 -16 5 -19 10 -10 16 3
12 73 -26z m-278 16 c0 -5 -2 -10 -4 -10 -3 0 -8 5 -11 10 -3 6 -1 10 4 10 6
0 11 -4 11 -10z m551 -48 c-17 -27 -31 -53 -31 -59 0 -5 -13 -22 -29 -37 -33
-31 -50 -30 -93 7 -25 22 -26 27 -17 60 13 49 22 47 14 -3 -6 -37 -5 -41 27
-60 44 -27 48 -26 48 15 0 19 5 35 10 35 6 0 8 -11 4 -27 -6 -27 -6 -27 9 -8
9 11 17 23 17 27 0 13 62 109 67 105 2 -3 -10 -27 -26 -55z m-1551 38 c0 -5
-2 -10 -4 -10 -3 0 -8 5 -11 10 -3 6 -1 10 4 10 6 0 11 -4 11 -10z m1910 -12
c0 -18 -2 -20 -9 -8 -6 8 -7 18 -5 22 9 14 14 9 14 -14z m-797 -47 c48 -24 87
-47 87 -51 0 -8 -141 63 -175 87 -28 21 -12 14 88 -36z m929 -24 c-5 -7 -13
-30 -17 -52 -3 -21 -13 -52 -21 -67 -8 -15 -14 -36 -14 -47 0 -11 -5 -23 -11
-27 -9 -5 -10 1 -5 20 9 37 -2 74 -16 55 -8 -11 -9 -11 -5 2 3 9 11 42 18 73
8 31 17 56 21 56 4 0 5 -7 2 -15 -4 -8 -3 -32 1 -53 l8 -37 14 50 c8 28 18 66
21 85 l7 35 3 -33 c2 -18 -1 -39 -6 -45z m-546 26 c-10 -10 -19 5 -10 18 6 11
8 11 12 0 2 -7 1 -15 -2 -18z m394 12 c0 -8 -4 -15 -10 -15 -5 0 -9 -4 -7 -8
1 -5 -16 -37 -39 -73 -54 -85 -104 -168 -104 -173 0 -2 -18 -35 -40 -72 -55
-92 -52 -87 -112 -184 -57 -91 -67 -108 -113 -189 -16 -29 -31 -48 -33 -42 -2
6 5 23 16 39 11 15 35 55 53 87 18 33 35 62 38 65 3 3 12 16 19 29 8 13 22 38
32 56 10 18 24 43 32 56 7 13 15 26 18 29 5 5 26 38 70 115 9 17 40 70 69 119
28 49 51 93 51 97 0 5 4 9 9 9 5 0 15 16 22 35 13 36 29 47 29 20z m-2410 -37
c0 -6 -6 -5 -15 2 -8 7 -15 14 -15 16 0 2 7 1 15 -2 8 -4 15 -11 15 -16z
m1872 -3 c-2 -14 -6 -25 -8 -25 -2 0 -4 11 -4 25 0 14 4 25 9 25 4 0 6 -11 3
-25z m-1719 -10 c8 -8 17 -12 20 -9 3 3 24 -5 47 -19 24 -14 37 -28 31 -31 -6
-4 -11 -3 -11 2 0 10 -7 13 -63 31 -23 8 -28 7 -23 -5 3 -8 1 -14 -4 -14 -6 0
-10 -7 -10 -15 0 -8 -4 -15 -9 -15 -6 0 -3 16 5 35 13 31 13 35 -1 35 -8 0
-15 5 -15 10 0 14 16 12 33 -5z m481 -27 c12 -64 14 -73 21 -90 4 -11 3 -18
-3 -18 -6 0 -16 21 -22 48 -21 85 -23 105 -12 99 5 -4 12 -21 16 -39z m-582
-69 c0 -3 10 -12 23 -19 14 -7 25 -17 25 -22 0 -13 -17 -9 -31 8 -7 9 -22 20
-34 24 -20 9 -20 9 0 10 11 0 16 4 10 8 -17 12 -45 69 -38 76 6 6 49 -73 45
-85z m2631 56 c-9 -19 -21 -35 -26 -35 -5 0 -3 10 5 23 8 12 18 28 22 35 15
26 15 10 -1 -23z m-1890 -50 c53 -27 97 -52 97 -57 0 -9 -198 90 -217 109 -20
18 -15 28 5 11 9 -8 61 -36 115 -63z m1087 32 c0 -5 -4 -5 -10 -2 -5 3 -10 14
-10 23 0 15 2 15 10 2 5 -8 10 -19 10 -23z m-60 -8 c32 -21 38 -29 20 -24 -14
4 -30 13 -36 21 -6 8 -16 14 -22 14 -6 0 -14 5 -17 10 -11 18 9 10 55 -21z
m-1850 1 c0 -5 6 -10 14 -10 8 0 17 -4 20 -9 4 -5 -2 -7 -12 -4 -13 3 -23 -6
-35 -33 -10 -20 -20 -34 -23 -31 -3 3 2 17 11 31 10 14 15 35 12 46 -3 11 -1
20 4 20 5 0 9 -4 9 -10z m330 -11 c0 -5 6 -8 13 -6 19 3 11 -47 -15 -87 -13
-20 -26 -36 -29 -36 -4 0 -17 9 -30 21 -13 11 -17 17 -9 13 26 -14 50 -11 56
8 3 10 9 18 14 18 4 0 10 9 13 20 4 14 -3 25 -23 37 -16 9 -27 20 -24 24 6 10
34 0 34 -12z m70 11 c0 -5 -2 -10 -4 -10 -3 0 -8 5 -11 10 -3 6 -1 10 4 10 6
0 11 -4 11 -10z m40 -16 c0 -8 -19 -13 -24 -6 -3 5 1 9 9 9 8 0 15 -2 15 -3z
m-249 -49 c22 -10 42 -22 45 -27 7 -11 -66 22 -88 40 -10 8 -14 20 -10 26 4 7
8 5 10 -5 2 -9 21 -25 43 -34z m2470 8 c-10 -21 -40 -73 -65 -116 -25 -43 -46
-80 -46 -83 0 -3 -9 -17 -20 -31 -31 -40 -24 -18 19 55 21 37 48 83 59 102 39
69 64 110 68 110 3 0 -4 -17 -15 -37z m-2116 -20 c115 -61 145 -78 145 -85 0
-4 -28 9 -62 28 -35 19 -75 41 -90 47 -16 6 -28 15 -28 19 0 4 -9 8 -19 8 -11
0 -22 4 -25 9 -7 11 6 24 13 14 3 -5 33 -22 66 -40z m-151 -12 c-6 -6 -24 19
-24 34 1 6 7 1 15 -9 8 -11 12 -22 9 -25z m36 -5 c0 -12 -5 -7 -19 24 -11 24
-11 24 3 6 9 -11 16 -24 16 -30z m2067 2 c-3 -7 -5 -2 -5 12 0 14 2 19 5 13 2
-7 2 -19 0 -25z m-2321 2 c15 -6 24 -13 21 -16 -3 -3 10 -19 29 -36 19 -17 34
-37 34 -45 0 -8 4 -12 9 -9 15 9 31 -18 21 -34 -8 -12 -10 -10 -10 8 0 13 -4
21 -9 17 -6 -3 -21 10 -34 29 -13 20 -41 49 -62 66 -41 32 -41 36 1 20z m534
-40 c7 -28 16 -52 21 -55 4 -3 6 -12 3 -20 -3 -8 1 -24 9 -36 9 -12 13 -28 10
-36 -3 -8 -1 -18 4 -22 14 -8 45 -119 38 -131 -3 -6 -12 -10 -18 -10 -9 0 -9
2 0 8 8 5 -4 12 -32 20 -41 11 -62 32 -32 32 7 1 5 6 -5 14 -10 7 -15 16 -11
19 10 11 -10 8 -27 -3 -10 -6 -11 -10 -2 -10 6 0 12 -4 12 -9 0 -5 -22 2 -50
15 -27 13 -50 26 -50 29 0 3 14 -2 30 -10 35 -18 80 -11 61 8 -9 9 -14 8 -21
-3 -6 -9 -10 -10 -10 -3 0 21 17 23 48 8 31 -16 46 -40 36 -56 -6 -11 43 -35
53 -26 7 7 -15 85 -30 104 -5 7 -7 18 -4 25 2 7 -1 20 -8 28 -7 8 -16 33 -19
54 -4 22 -13 53 -21 70 -17 34 -19 46 -6 46 5 0 14 -23 21 -50z m323 -9 c48
-24 85 -46 83 -49 -3 -2 -29 8 -58 23 -29 15 -70 36 -90 46 -21 11 -38 22 -38
25 0 7 0 7 103 -45z m-1065 -13 c10 -12 11 -18 3 -18 -6 0 -14 7 -17 15 -4 8
-10 12 -15 9 -11 -6 -12 8 -2 33 7 17 8 17 11 -2 2 -11 11 -28 20 -37z m459
-1 c-3 -7 -6 -5 -6 6 -1 9 -5 17 -11 17 -5 0 -10 8 -10 17 0 14 3 13 16 -5 8
-12 13 -28 11 -35z m2053 -23 c-17 -61 -23 -49 -8 16 7 29 14 47 16 41 2 -7
-1 -33 -8 -57z m29 -10 c-10 -25 -13 -26 -17 -9 -2 10 1 21 7 23 6 2 12 13 12
25 1 14 3 16 6 6 2 -8 -2 -29 -8 -45z m-2154 -1 c19 -21 35 -42 35 -47 0 -5 7
-14 17 -21 10 -8 12 -14 5 -19 -6 -3 -16 7 -24 24 -7 16 -17 30 -23 30 -9 1
-59 70 -50 70 3 0 20 -17 40 -37z m-258 -38 c29 -17 53 -33 53 -37 0 -3 -28 9
-62 28 -35 19 -71 37 -80 41 -10 3 -18 9 -18 14 0 10 36 -6 107 -46z m376 2
c-6 -10 -32 23 -33 42 0 7 8 3 19 -10 11 -13 17 -28 14 -32z m-505 -2 c-3 -3
-9 2 -12 12 -6 14 -5 15 5 6 7 -7 10 -15 7 -18z m1219 4 c73 -40 104 -61 99
-67 -3 -2 -12 1 -20 7 -8 7 -43 28 -78 47 -35 18 -58 34 -51 34 7 0 29 -9 50
-21z m-606 -50 l24 0 -25 -10 c-17 -7 -26 -7 -28 0 -2 6 -9 11 -16 11 -7 0
-18 10 -25 23 -6 12 -9 14 -7 5 3 -9 0 -19 -7 -21 -7 -3 0 -10 16 -16 15 -6
27 -13 27 -16 0 -4 -5 -3 -11 0 -16 11 -59 -4 -59 -20 0 -8 -8 -15 -17 -15
-15 0 -16 2 -3 10 8 5 11 10 5 10 -5 0 -2 5 8 11 9 5 17 20 17 32 0 41 21 50
50 22 14 -14 37 -25 51 -26z m1902 19 c-9 -52 -26 -79 -42 -69 -11 7 -9 11 8
20 14 8 21 21 21 40 0 24 7 41 16 41 2 0 1 -15 -3 -32z m-32 -31 c-13 -13 -15
11 -4 40 7 16 8 15 11 -6 2 -13 -1 -28 -7 -34z m-2458 23 c3 -11 2 -20 -3 -20
-4 0 -10 9 -13 20 -3 11 -2 20 3 20 4 0 10 -9 13 -20z m332 10 c3 -6 -1 -7 -9
-4 -18 7 -21 14 -7 14 6 0 13 -4 16 -10z m81 -51 c8 -13 -21 1 -51 26 -19 15
-18 15 12 1 17 -9 35 -21 39 -27z m-219 25 c-3 -3 -12 -4 -19 -1 -8 3 -5 6 6
6 11 1 17 -2 13 -5z m-160 -67 c-3 -7 -6 -5 -6 6 -1 9 -5 17 -11 17 -5 0 -10
8 -10 17 0 14 3 13 16 -5 8 -12 13 -28 11 -35z m231 30 c44 -28 126 -74 237
-133 44 -23 81 -48 84 -56 3 -10 1 -10 -10 -2 -17 14 -69 44 -159 91 -36 18
-79 42 -96 52 -17 11 -53 31 -80 45 -27 14 -41 26 -31 26 9 0 34 -10 55 -23z
m1094 5 c33 -14 126 -72 115 -72 -4 0 -22 8 -40 17 -18 9 -34 18 -37 19 -3 1
-15 5 -27 9 -13 4 -23 11 -23 16 0 5 -6 9 -14 9 -8 0 -17 4 -20 9 -7 11 8 8
46 -7z m1140 -44 c-8 -8 -9 -4 -5 13 4 13 8 18 11 10 2 -7 -1 -18 -6 -23z
m-73 -44 c-7 -18 -13 -24 -16 -16 -3 8 0 19 6 25 6 6 12 22 12 37 1 20 2 21 6
4 2 -11 -1 -34 -8 -50z m36 17 c1 -16 -6 -42 -16 -58 -10 -15 -19 -23 -19 -18
1 6 7 18 14 28 8 10 12 34 11 53 -2 20 -1 33 2 30 3 -3 7 -19 8 -35z m-2353
-36 c21 -10 35 -21 33 -23 -6 -6 -88 38 -97 52 -15 22 -7 31 10 11 9 -11 34
-29 54 -40z m1454 -6 c30 -17 54 -32 54 -35 0 -6 -53 19 -89 43 -49 33 -27 28
35 -8z m850 -26 c-4 -9 -1 -20 6 -25 9 -6 10 -10 2 -15 -6 -5 -19 -23 -28 -41
-10 -19 -20 -32 -22 -29 -3 3 4 20 15 38 11 18 18 36 15 41 -6 9 4 48 13 48 3
0 2 -8 -1 -17z m-1602 -11 c-17 -12 -74 -100 -74 -115 0 -8 7 -20 15 -27 16
-14 20 -30 7 -30 -5 0 -15 12 -23 26 -7 14 -32 35 -54 45 -22 11 -51 28 -65
39 -24 19 -24 19 -2 13 12 -3 22 -9 22 -13 0 -6 71 -40 84 -40 2 0 16 20 30
44 30 51 56 80 64 71 4 -3 2 -9 -4 -13z m-581 -24 c16 -11 25 -23 21 -27 -4
-3 -9 0 -11 7 -3 6 -9 12 -14 12 -5 0 -23 9 -41 21 -28 17 -29 19 -8 13 14 -3
38 -16 53 -26z m1532 -43 c139 -72 234 -131 195 -120 -14 4 -49 23 -78 41 -29
19 -59 34 -67 34 -8 0 -15 4 -15 8 0 5 -38 27 -85 50 -74 37 -98 52 -80 52 3
0 61 -29 130 -65z m-904 -49 c15 -48 30 -101 34 -119 l6 -32 -15 31 c-7 17
-17 45 -21 63 -4 17 -17 59 -30 92 -14 34 -19 59 -13 57 7 -3 24 -44 39 -92z
m-502 21 c42 -24 105 -59 141 -77 76 -40 75 -39 69 -45 -5 -5 -13 -1 -139 70
-47 27 -102 57 -122 67 -35 17 -47 28 -31 28 3 0 40 -20 82 -43z m1967 -98
c-108 -183 -172 -292 -209 -361 -11 -21 -22 -36 -25 -34 -3 4 80 155 139 254
15 26 28 48 79 137 41 71 52 87 56 82 2 -2 -15 -37 -40 -78z m-1449 -123 c26
-39 49 -64 51 -58 2 7 0 18 -6 25 -5 7 -12 26 -15 42 -5 24 -2 22 14 -13 20
-43 19 -80 -1 -67 -16 10 -12 -7 8 -28 15 -17 13 -17 -25 3 -45 23 -56 36 -23
25 32 -10 26 18 -15 70 -63 81 -95 126 -95 132 1 13 56 -56 107 -131z m1115
97 c-5 -10 -15 -76 -23 -147 -7 -71 -15 -124 -17 -117 -5 14 17 246 25 267 3
8 9 14 14 14 6 0 6 -7 1 -17z m-1386 -12 c5 -5 36 -23 69 -41 38 -21 49 -30
31 -26 -17 4 -42 16 -57 27 -15 10 -30 19 -34 19 -3 0 -13 7 -21 15 -16 16 -5
22 12 6z m-2159 -65 c7 -6 15 -25 19 -43 12 -62 -78 -101 -126 -53 -62 62 43
156 107 96z m-979 -19 c3 -23 -1 -28 -27 -33 -26 -6 -31 -11 -31 -35 0 -19 -5
-29 -15 -29 -12 0 -15 14 -15 66 l0 65 43 -3 c38 -3 42 -6 45 -31z m150 5 c2
-14 -3 -29 -13 -36 -15 -11 -15 -13 4 -30 24 -22 27 -36 9 -36 -7 0 -23 15
-35 33 l-23 32 0 -33 c0 -17 -4 -32 -10 -32 -6 0 -10 29 -10 66 l0 65 38 -3
c30 -2 38 -7 40 -26z m312 -42 c0 -59 -3 -71 -20 -80 -20 -11 -30 3 -10 15 6
3 10 35 10 71 0 36 4 64 10 64 6 0 10 -30 10 -70z m156 5 c28 -69 28 -65 10
-65 -8 0 -17 11 -20 25 -4 16 -13 25 -26 25 -13 0 -24 -10 -30 -25 -5 -14 -15
-25 -21 -25 -6 0 -9 6 -6 13 38 92 51 117 60 114 5 -1 20 -29 33 -62z m172 32
c3 -23 -1 -28 -27 -33 -26 -6 -31 -11 -31 -35 0 -19 -5 -29 -15 -29 -12 0 -15
14 -15 66 l0 65 43 -3 c38 -3 42 -6 45 -31z m367 23 c-4 -6 -14 -9 -22 -8 -13
2 -16 -8 -17 -51 -1 -34 -6 -56 -13 -58 -10 -4 -13 12 -13 55 0 55 -2 60 -20
55 -11 -3 -20 0 -20 6 0 7 21 11 56 11 35 0 53 -4 49 -10z m85 -55 c0 -37 -4
-65 -10 -65 -6 0 -10 28 -10 65 0 37 4 65 10 65 6 0 10 -28 10 -65z m2079 13
c22 -12 39 -23 37 -25 -5 -5 -86 35 -86 42 0 8 6 6 49 -17z m251 -140 c25 -14
72 -40 105 -58 33 -17 64 -36 70 -41 16 -15 -8 -9 -40 11 -16 10 -68 38 -113
62 -46 24 -89 52 -94 63 -10 19 -10 19 8 4 10 -9 39 -27 64 -41z m906 -84
c-14 -13 -16 -13 -16 -1 0 9 3 23 6 32 6 16 8 16 16 1 6 -11 4 -21 -6 -32z
m-651 -59 c17 -12 39 -25 50 -29 11 -3 31 -16 45 -27 16 -13 4 -9 -35 11 -33
17 -64 36 -69 41 -6 5 -18 9 -27 9 -9 0 -19 7 -22 14 -8 19 17 11 58 -19z
m645 -40 c0 -24 -5 -56 -11 -72 -6 -15 -12 -56 -14 -91 -3 -54 -1 -61 11 -51
11 9 9 3 -3 -19 -10 -18 -22 -32 -27 -32 -6 0 -5 5 2 12 15 15 16 31 0 22 -8
-5 -9 -2 -4 12 4 10 10 50 12 89 3 38 9 72 13 75 4 3 8 28 7 57 -1 28 2 49 7
46 4 -2 7 -24 7 -48z m120 5 c-6 -11 -13 -20 -16 -20 -2 0 0 9 6 20 6 11 13
20 16 20 2 0 0 -9 -6 -20z m-554 -80 c120 -64 266 -151 260 -157 -3 -3 -17 3
-33 14 -15 10 -41 25 -58 33 -16 8 -37 19 -45 26 -8 6 -50 30 -93 53 -79 41
-127 71 -115 71 4 0 42 -18 84 -40z m309 -172 c14 -6 25 -15 25 -19 0 -4 -13
-1 -30 7 -45 23 -41 33 5 12z"/>
<path d="M585 8981 c-72 -23 -133 -83 -174 -171 -24 -51 -26 -65 -26 -190 0
-133 1 -137 33 -202 58 -118 159 -177 279 -165 147 15 238 115 264 290 29 196
-38 370 -166 428 -40 19 -166 25 -210 10z"/>
<path d="M2985 8753 c-57 -15 -110 -82 -129 -165 l-6 -28 166 0 167 0 -7 47
c-7 54 -31 98 -67 125 -27 20 -89 31 -124 21z"/>
<path d="M1302 7173 c-37 -7 -98 -75 -116 -129 -49 -150 -40 -376 20 -481 33
-58 73 -84 131 -85 127 -3 182 88 191 309 10 291 -63 417 -226 386z"/>
<path d="M2098 7170 c-68 -20 -115 -85 -138 -191 -17 -76 -8 -308 14 -367 33
-92 83 -133 161 -134 75 -2 140 54 165 141 24 83 32 196 21 292 -18 160 -44
218 -114 249 -45 21 -67 23 -109 10z"/>
<path d="M5122 5753 c-33 -6 -88 -66 -96 -103 -21 -106 6 -178 77 -214 75 -36
172 3 198 81 15 47 6 155 -16 189 -28 43 -90 61 -163 47z"/>
<path d="M1151 5742 c-36 -18 -65 -52 -76 -89 l-6 -23 130 0 c129 0 131 0 131
23 0 12 -9 37 -20 55 -32 53 -96 67 -159 34z"/>
<path d="M2370 5742 c-35 -17 -80 -73 -80 -98 0 -11 27 -14 130 -14 124 0 130
1 130 20 0 37 -30 81 -65 96 -45 18 -73 18 -115 -4z"/>
<path d="M4354 5743 c-29 -14 -74 -76 -74 -102 0 -7 41 -11 130 -11 124 0 130
1 130 20 0 83 -103 135 -186 93z"/>
<path d="M1792 4670 c-50 -23 -81 -79 -82 -148 0 -139 141 -216 257 -139 40
27 54 57 60 127 12 139 -106 219 -235 160z"/>
<path d="M3712 4670 c-19 -12 -41 -38 -52 -63 l-19 -42 21 -3 c13 -2 27 4 35
15 7 10 20 26 28 36 8 9 15 21 15 26 0 11 29 35 35 29 3 -3 -11 -25 -30 -49
-19 -24 -35 -47 -35 -52 0 -4 45 -6 100 -6 110 2 102 -3 84 59 -3 10 -19 31
-35 45 -38 32 -100 34 -147 5z m148 -30 c0 -5 -4 -10 -10 -10 -5 0 -10 5 -10
10 0 6 5 10 10 10 6 0 10 -4 10 -10z m16 -32 c4 -6 3 -8 -3 -5 -6 4 -13 0 -17
-8 -6 -17 -26 -20 -26 -4 0 5 4 8 9 5 5 -3 11 1 15 9 7 18 12 19 22 3z"/>
<path d="M3480 3615 c0 -8 7 -15 15 -15 8 0 15 7 15 15 0 8 -7 15 -15 15 -8 0
-15 -7 -15 -15z"/>
<path d="M3330 3050 c0 -5 5 -10 11 -10 5 0 7 5 4 10 -3 6 -8 10 -11 10 -2 0
-4 -4 -4 -10z"/>
<path d="M3125 3030 c3 -5 13 -10 21 -10 8 0 12 5 9 10 -3 6 -13 10 -21 10 -8
0 -12 -4 -9 -10z"/>
<path d="M6120 2869 c0 -5 5 -7 10 -4 6 3 10 8 10 11 0 2 -4 4 -10 4 -5 0 -10
-5 -10 -11z"/>
<path d="M3625 2490 c-3 -5 1 -10 10 -10 9 0 13 5 10 10 -3 6 -8 10 -10 10 -2
0 -7 -4 -10 -10z"/>
<path d="M5290 1889 c0 -5 5 -7 10 -4 6 3 10 8 10 11 0 2 -4 4 -10 4 -5 0 -10
-5 -10 -11z"/>
<path d="M5536 1553 c-4 -13 -3 -30 2 -39 8 -15 10 -15 15 0 4 9 3 26 -2 38
l-8 23 -7 -22z"/>
<path d="M1360 781 c-23 -44 -3 -91 39 -91 33 0 55 72 29 98 -18 18 -56 14
-68 -7z"/>
<path d="M410 775 c0 -27 9 -32 28 -13 8 8 9 15 1 25 -17 20 -29 15 -29 -12z"/>
<path d="M560 775 c0 -28 12 -32 30 -10 14 16 6 35 -16 35 -8 0 -14 -10 -14
-25z"/>
<path d="M1040 755 c0 -8 5 -15 10 -15 6 0 10 7 10 15 0 8 -4 15 -10 15 -5 0
-10 -7 -10 -15z"/>
<path d="M1200 775 c0 -27 9 -32 27 -14 14 14 6 39 -13 39 -8 0 -14 -10 -14
-25z"/>
</g>
</svg>
