<?xml version="1.0" standalone="no"?>
<!DOCTYPE svg PUBLIC "-//W3C//DTD SVG 20010904//EN"
 "http://www.w3.org/TR/2001/REC-SVG-20010904/DTD/svg10.dtd">
<svg version="1.0" xmlns="http://www.w3.org/2000/svg"
 width="1280.000000pt" height="647.000000pt" viewBox="0 0 1280.000000 647.000000"
 preserveAspectRatio="xMidYMid meet">

<g transform="translate(0.000000,647.000000) scale(0.100000,-0.100000)"
fill="#000000" stroke="none">
<path d="M10830 6351 c-5 -11 -10 -78 -10 -149 0 -112 2 -131 18 -145 16 -15
53 -17 309 -17 268 0 291 1 306 18 14 15 17 41 17 146 0 70 -5 136 -10 147
-10 18 -24 19 -315 19 -291 0 -305 -1 -315 -19z m195 -112 c11 -16 -3 -23 -19
-10 -10 8 -16 9 -21 1 -3 -5 6 -15 20 -20 33 -12 30 -44 -4 -48 -25 -4 -50 13
-37 25 4 4 11 1 16 -7 7 -11 12 -12 20 -4 8 8 4 16 -14 28 -16 10 -23 22 -20
31 7 17 50 20 59 4z m235 -34 c0 -25 -4 -45 -10 -45 -5 0 -10 20 -10 45 0 25
5 45 10 45 6 0 10 -20 10 -45z m-213 -27 c-2 -13 -4 -5 -4 17 -1 22 1 32 4 23
2 -10 2 -28 0 -40z m83 13 c0 -46 -20 -68 -47 -52 -16 9 -15 10 7 11 25 1 25
1 3 10 -15 6 -23 18 -23 33 0 30 7 37 37 37 20 0 23 -5 23 -39z m68 2 c2 -19
-1 -33 -7 -33 -6 0 -11 12 -11 26 0 16 -5 24 -12 21 -7 -2 -13 -14 -12 -26 0
-11 -3 -21 -8 -21 -4 0 -8 16 -8 36 0 33 2 35 28 32 22 -2 28 -8 30 -35z m130
0 c2 -19 -1 -33 -7 -33 -6 0 -11 11 -11 25 0 14 -4 25 -10 25 -5 0 -10 -11
-10 -25 0 -14 -4 -25 -10 -25 -5 0 -10 16 -10 36 0 33 2 35 28 32 22 -2 28 -8
30 -35z"/>
<path d="M11082 6194 c4 -21 22 -23 26 -1 2 10 -3 17 -13 17 -10 0 -15 -6 -13
-16z"/>
<path d="M1610 6205 c0 -37 3 -45 19 -45 23 0 47 25 31 35 -6 3 -8 10 -5 15 3
4 -4 6 -15 3 -14 -4 -20 0 -20 12 0 12 6 16 20 12 11 -3 18 -1 14 4 -3 5 -14
9 -25 9 -16 0 -19 -7 -19 -45z m43 -20 c1 -5 -6 -11 -15 -13 -11 -2 -18 3 -18
13 0 17 30 18 33 0z"/>
<path d="M1903 6205 c0 -27 2 -38 4 -22 2 15 2 37 0 50 -2 12 -4 0 -4 -28z"/>
<path d="M1967 6233 c-6 -11 4 -73 12 -73 7 0 6 68 -2 76 -3 3 -7 2 -10 -3z"/>
<path d="M1681 6191 c1 -28 3 -30 6 -11 3 14 9 30 14 36 5 7 3 11 -6 11 -11 0
-15 -11 -14 -36z"/>
<path d="M1729 6214 c-16 -19 -1 -48 27 -51 18 -3 18 -3 0 5 -21 9 -30 38 -15
48 5 3 14 2 20 -2 8 -4 7 -9 -2 -15 -11 -7 -10 -9 4 -9 20 0 22 11 5 28 -16
16 -23 15 -39 -4z"/>
<path d="M1817 6223 c6 -4 13 -22 16 -38 4 -27 5 -27 3 4 0 21 -7 36 -16 38
-10 3 -11 2 -3 -4z"/>
<path d="M1864 6216 c-8 -22 -1 -49 14 -52 7 -1 8 0 2 3 -14 7 -13 50 3 56 9
4 9 6 -1 6 -7 1 -15 -5 -18 -13z"/>
<path d="M1932 6190 c0 -19 2 -27 5 -17 2 9 2 25 0 35 -3 9 -5 1 -5 -18z"/>
<path d="M4952 6190 c0 -14 2 -19 5 -12 2 6 2 18 0 25 -3 6 -5 1 -5 -13z"/>
<path d="M1795 6190 c-8 -13 3 -30 18 -30 7 0 6 4 -3 10 -13 9 -13 11 0 20 9
6 10 10 3 10 -6 0 -15 -4 -18 -10z"/>
<path d="M2122 5608 c-7 -7 -12 -20 -12 -30 0 -10 -7 -18 -15 -18 -8 0 -15 -6
-15 -14 0 -8 7 -16 15 -20 11 -4 15 -22 15 -71 0 -58 2 -65 20 -65 18 0 20 7
20 70 0 56 3 70 15 70 8 0 15 7 15 15 0 8 -7 15 -15 15 -21 0 -19 17 5 30 11
6 20 15 20 20 0 14 -54 12 -68 -2z"/>
<path d="M1380 5537 c26 -49 40 -86 40 -111 0 -30 3 -37 18 -34 12 2 19 16 22
48 3 26 21 71 43 108 l36 62 -24 0 c-18 0 -31 -11 -51 -46 l-27 -47 -24 47
c-18 36 -29 46 -48 46 l-26 0 41 -73z"/>
<path d="M2670 5575 c0 -32 -2 -35 -19 -25 -30 15 -48 12 -71 -12 -29 -32 -27
-92 5 -123 26 -27 41 -30 65 -15 9 5 19 5 27 -2 7 -5 20 -8 28 -4 12 4 15 26
15 111 l0 105 -25 0 c-22 0 -25 -4 -25 -35z m-2 -103 c-3 -32 -6 -37 -28 -37
-35 0 -51 46 -26 74 15 16 23 18 38 10 15 -8 18 -19 16 -47z"/>
<path d="M1556 5539 c-21 -16 -26 -29 -26 -64 0 -35 5 -48 26 -64 15 -12 37
-21 49 -21 12 0 34 9 49 21 21 16 26 29 26 64 0 35 -5 48 -26 64 -15 12 -37
21 -49 21 -12 0 -34 -9 -49 -21z m72 -21 c27 -27 11 -88 -23 -88 -24 0 -35 17
-35 54 0 24 17 46 35 46 6 0 16 -5 23 -12z"/>
<path d="M1720 5492 c0 -57 4 -72 21 -88 19 -17 22 -18 50 -2 24 14 29 15 29
3 0 -8 9 -15 20 -15 18 0 20 7 20 85 0 78 -2 85 -20 85 -16 0 -19 -8 -22 -62
-3 -60 -4 -63 -28 -63 -24 0 -25 3 -28 63 -3 54 -6 62 -22 62 -18 0 -20 -7
-20 -68z"/>
<path d="M1902 5478 c3 -70 6 -83 21 -86 14 -3 17 4 17 43 0 56 14 85 40 85
13 0 20 7 20 20 0 24 -17 26 -42 3 -17 -15 -18 -15 -18 0 0 10 -8 17 -20 17
-20 0 -21 -5 -18 -82z"/>
<path d="M2225 5535 c-56 -55 -13 -154 62 -142 37 6 63 23 63 39 0 10 -30 7
-61 -6 -16 -7 -49 16 -49 35 0 5 25 9 55 9 52 0 55 2 55 24 0 30 -43 66 -77
66 -13 0 -35 -11 -48 -25z m69 -11 c30 -12 18 -34 -19 -34 -37 0 -43 8 -23 28
14 14 20 14 42 6z"/>
<path d="M2405 5535 c-34 -33 -34 -87 1 -122 21 -21 32 -24 62 -19 40 6 75 38
48 44 -8 2 -24 -2 -35 -8 -25 -13 -61 2 -61 25 0 11 13 15 55 15 52 0 55 2 55
24 0 30 -43 66 -77 66 -13 0 -35 -11 -48 -25z m73 -17 c20 -20 14 -28 -23 -28
-19 0 -35 4 -35 8 0 12 22 32 35 32 6 0 16 -5 23 -12z"/>
<path d="M2719 4914 c-3 -20 3 -59 9 -66 4 -4 7 9 6 28 -1 31 -12 60 -15 38z"/>
<path d="M2883 4880 c0 -25 2 -35 4 -22 2 12 2 32 0 45 -2 12 -4 2 -4 -23z"/>
<path d="M1736 4881 c-22 -23 -25 -29 -12 -34 9 -4 16 -16 16 -27 0 -15 7 -20
25 -20 18 0 25 5 25 20 0 10 7 23 15 27 13 8 11 13 -13 36 l-28 27 -28 -29z
m47 -43 c-3 -16 -11 -28 -18 -28 -17 0 -26 51 -12 68 16 20 37 -7 30 -40z"/>
<path d="M2362 4898 c-7 -7 -12 -19 -11 -27 0 -10 4 -6 10 8 6 15 14 21 25 17
8 -3 12 -2 9 4 -8 13 -18 13 -33 -2z"/>
<path d="M2433 4903 c-7 -2 -12 -19 -12 -36 2 -28 2 -29 6 -7 3 14 10 31 15
38 11 13 10 13 -9 5z"/>
<path d="M2546 4901 c-3 -5 2 -8 12 -7 11 1 18 -7 20 -23 3 -20 0 -23 -19 -18
-16 4 -19 3 -11 -5 15 -15 42 -2 42 20 0 30 -32 54 -44 33z"/>
<path d="M2916 4902 c-2 -4 4 -8 14 -8 10 0 16 4 14 8 -3 4 -9 8 -14 8 -5 0
-11 -4 -14 -8z"/>
<path d="M2687 4888 c-2 -7 -1 -22 4 -33 6 -16 8 -14 8 13 1 33 -4 41 -12 20z"/>
<path d="M2780 4880 l-25 -8 28 -1 c15 -1 27 4 27 9 0 6 -1 10 -2 9 -2 -1 -14
-5 -28 -9z"/>
<path d="M2838 4873 c7 -3 16 -2 19 1 4 3 -2 6 -13 5 -11 0 -14 -3 -6 -6z"/>
<path d="M3110 4870 c0 -5 5 -10 10 -10 6 0 10 5 10 10 0 6 -4 10 -10 10 -5 0
-10 -4 -10 -10z"/>
<path d="M2246 4855 c-9 -26 -7 -32 5 -12 6 10 9 21 6 23 -2 3 -7 -2 -11 -11z"/>
<path d="M2290 4862 c0 -18 29 -27 43 -13 9 9 8 11 -7 5 -11 -4 -21 -2 -27 7
-6 10 -9 11 -9 1z"/>
<path d="M2470 4858 c0 -19 34 -25 45 -8 4 6 -1 7 -10 3 -10 -3 -21 0 -26 8
-7 11 -9 11 -9 -3z"/>
<path d="M2650 4861 c0 -10 19 -25 25 -20 1 2 -3 10 -11 17 -8 7 -14 8 -14 3z"/>
<path d="M2900 4862 c0 -18 29 -27 43 -13 9 9 8 11 -7 5 -11 -4 -21 -2 -27 7
-6 10 -9 11 -9 1z"/>
<path d="M2980 4861 c0 -5 5 -13 10 -16 6 -3 10 -2 10 4 0 5 -4 13 -10 16 -5
3 -10 2 -10 -4z"/>
<path d="M3020 4861 c0 -5 5 -13 10 -16 6 -3 10 -2 10 4 0 5 -4 13 -10 16 -5
3 -10 2 -10 -4z"/>
<path d="M2768 4848 c5 -5 16 -8 23 -6 8 3 3 7 -10 11 -17 4 -21 3 -13 -5z"/>
<path d="M2368 4843 c7 -3 16 -2 19 1 4 3 -2 6 -13 5 -11 0 -14 -3 -6 -6z"/>
<path d="M4218 4843 c7 -3 16 -2 19 1 4 3 -2 6 -13 5 -11 0 -14 -3 -6 -6z"/>
<path d="M8422 4834 c-17 -12 -22 -25 -22 -60 l0 -45 53 3 52 3 3 38 c3 30 -2
42 -20 57 -28 24 -37 24 -66 4z m56 -10 c17 -12 22 -24 20 -47 -4 -39 -22 -42
-26 -4 -2 19 -9 27 -23 27 -14 0 -19 -7 -19 -30 0 -16 -4 -30 -10 -30 -16 0
-11 62 7 82 20 22 23 22 51 2z m-18 -60 c0 -14 -4 -23 -10 -19 -5 3 -10 15
-10 26 0 10 5 19 10 19 6 0 10 -12 10 -26z"/>
<path d="M8582 4795 c0 -27 3 -40 5 -27 6 30 53 32 53 2 0 -11 5 -20 10 -20 6
0 10 20 10 45 0 25 -4 45 -10 45 -5 0 -10 -9 -10 -20 0 -28 -38 -26 -50 3 -7
17 -9 11 -8 -28z"/>
<path d="M2263 4813 c37 -2 96 -2 130 0 34 2 4 3 -68 3 -71 0 -99 -1 -62 -3z"/>
<path d="M2628 4813 c78 -2 206 -2 285 0 78 1 14 3 -143 3 -157 0 -221 -2
-142 -3z"/>
<path d="M8680 4805 c-18 -22 -1 -50 31 -50 20 0 24 5 24 30 0 23 -5 31 -21
33 -11 2 -27 -4 -34 -13z m42 -7 c7 -19 -2 -38 -18 -38 -8 0 -14 8 -14 18 0
30 23 44 32 20z"/>
<path d="M8761 4781 c1 -35 2 -35 8 -7 9 41 31 46 31 7 0 -17 5 -31 10 -31 6
0 10 14 10 30 0 17 5 30 10 30 6 0 10 -13 10 -30 0 -16 5 -30 11 -30 6 0 9 14
7 33 -3 31 -4 32 -50 33 l-48 1 1 -36z"/>
<path d="M8884 4806 c-15 -39 23 -74 50 -46 8 9 6 11 -11 6 -12 -4 -24 -2 -28
4 -4 6 4 10 20 10 20 0 26 4 23 18 -4 22 -46 29 -54 8z m41 -6 c3 -5 -3 -10
-15 -10 -12 0 -18 5 -15 10 3 6 10 10 15 10 5 0 12 -4 15 -10z"/>
<path d="M2221 4676 c-7 -8 -11 -30 -9 -48 4 -42 48 -62 75 -35 9 9 13 20 9
24 -5 5 -11 2 -13 -4 -7 -20 -51 -16 -58 6 -13 43 25 73 56 45 21 -19 27 -6 7
14 -16 16 -53 15 -67 -2z"/>
<path d="M2980 4635 l0 -55 35 0 c19 0 35 5 35 10 0 6 -11 10 -25 10 -23 0
-25 4 -25 45 0 25 -4 45 -10 45 -5 0 -10 -25 -10 -55z"/>
<path d="M2802 4668 c-7 -7 -8 -16 -3 -22 5 -6 11 -22 13 -35 1 -14 10 -26 18
-29 12 -4 13 -2 3 9 -16 16 -17 56 -2 61 7 2 6 8 -3 16 -11 9 -17 9 -26 0z"/>
<path d="M2327 4654 c-15 -15 -7 -63 12 -69 33 -10 52 5 49 39 -2 25 -8 32
-28 34 -14 2 -29 0 -33 -4z m49 -19 c4 -8 0 -22 -7 -31 -12 -14 -14 -14 -25 1
-7 9 -10 23 -7 31 7 19 32 18 39 -1z"/>
<path d="M2410 4620 c0 -22 5 -40 10 -40 6 0 10 13 10 30 0 17 7 33 18 39 14
9 13 10 -10 11 -26 0 -28 -3 -28 -40z"/>
<path d="M2470 4605 c0 -30 5 -55 10 -55 6 0 10 9 10 19 0 14 5 18 19 14 24
-6 42 24 34 55 -4 17 -13 22 -39 22 l-34 0 0 -55z m57 25 c4 -21 -13 -44 -26
-36 -6 4 -11 18 -11 32 0 19 5 25 17 22 10 -2 19 -10 20 -18z"/>
<path d="M2564 4635 c-7 -29 10 -55 36 -55 26 0 43 26 36 55 -5 20 -13 25 -36
25 -23 0 -31 -5 -36 -25z m51 -15 c0 -13 -6 -25 -12 -27 -16 -6 -27 21 -19 43
9 23 31 11 31 -16z"/>
<path d="M2661 4618 c2 -34 3 -37 6 -13 2 17 12 36 21 43 14 11 13 12 -6 12
-19 0 -22 -5 -21 -42z"/>
<path d="M2720 4652 c0 -6 9 -8 20 -5 11 3 20 1 20 -5 0 -6 -10 -12 -22 -14
-15 -2 -23 -10 -23 -23 0 -16 7 -20 33 -22 32 -1 33 0 30 35 -3 32 -7 37 -30
40 -16 2 -28 -1 -28 -6z m40 -41 c0 -12 -20 -25 -27 -18 -7 7 6 27 18 27 5 0
9 -4 9 -9z"/>
<path d="M2854 4635 c-4 -15 -1 -32 6 -40 14 -17 46 -20 55 -5 4 6 -3 9 -16 7
-12 -1 -24 4 -26 11 -3 8 6 12 26 12 33 0 39 8 19 28 -22 22 -57 14 -64 -13z
m51 5 c3 -5 -3 -10 -15 -10 -12 0 -18 5 -15 10 3 6 10 10 15 10 5 0 12 -4 15
-10z"/>
<path d="M3070 4651 c0 -5 9 -7 20 -4 27 7 25 -10 -2 -22 -35 -15 -29 -40 10
-41 31 -1 32 1 32 38 0 36 -2 38 -30 38 -16 0 -30 -4 -30 -9z m50 -41 c0 -12
-28 -25 -36 -17 -9 9 6 27 22 27 8 0 14 -5 14 -10z"/>
<path d="M3154 4643 c15 -55 18 -63 26 -63 6 0 12 11 16 25 7 28 24 24 24 -6
0 -10 5 -19 10 -19 11 0 30 42 30 66 0 24 -20 5 -21 -19 -1 -20 -2 -19 -12 6
-13 33 -25 34 -37 5 l-9 -23 -7 23 c-3 12 -11 22 -16 22 -5 0 -7 -8 -4 -17z"/>
<path d="M1744 4578 c-4 -7 -3 -8 4 -4 8 5 12 -4 12 -28 0 -20 5 -36 10 -36 6
0 10 18 10 40 0 40 -19 55 -36 28z"/>
<path d="M2212 4383 c12 -3 18 -17 21 -46 l4 -42 1 42 c2 30 7 43 20 46 9 3
-1 5 -23 5 -22 0 -32 -2 -23 -5z"/>
<path d="M2283 4345 c0 -27 2 -38 4 -22 2 15 2 37 0 50 -2 12 -4 0 -4 -28z"/>
<path d="M3499 4373 c-13 -15 -12 -15 8 -3 18 12 24 12 40 -1 16 -13 17 -13 4
4 -17 21 -35 22 -52 0z"/>
<path d="M3102 4344 c2 -23 9 -39 18 -41 12 -4 13 -3 1 5 -8 6 -12 20 -9 36 3
15 1 29 -4 32 -5 4 -8 -10 -6 -32z"/>
<path d="M3936 4372 c-2 -4 -1 -14 3 -21 6 -10 10 -9 14 3 6 16 -8 32 -17 18z"/>
<path d="M2307 4363 c6 -4 13 -22 16 -38 4 -27 5 -27 3 4 0 21 -7 36 -16 38
-10 3 -11 2 -3 -4z"/>
<path d="M2384 4359 c-3 -6 -1 -16 5 -22 9 -9 10 -7 5 7 -6 16 -4 18 10 13 10
-4 15 -3 11 3 -8 13 -22 13 -31 -1z"/>
<path d="M2505 4360 c-8 -13 3 -30 18 -29 9 0 9 2 0 6 -7 2 -13 9 -13 15 0 6
7 7 16 4 8 -3 12 -2 9 4 -8 13 -22 13 -30 0z"/>
<path d="M2605 4361 c-4 -7 0 -8 11 -4 13 5 16 2 12 -8 -3 -8 -1 -23 3 -34 7
-15 8 -12 6 14 -2 34 -19 51 -32 32z"/>
<path d="M2702 4358 c-15 -15 -16 -45 -2 -53 14 -9 50 4 50 18 0 8 -3 8 -12
-1 -7 -7 -18 -12 -25 -12 -16 0 -17 32 -1 48 7 7 10 12 7 12 -3 0 -10 -5 -17
-12z"/>
<path d="M2769 4354 c-16 -19 -1 -48 27 -51 13 -2 11 1 -6 9 l-25 12 28 4 c29
4 33 12 15 30 -16 16 -23 15 -39 -4z m36 -4 c3 -5 -3 -10 -15 -10 -12 0 -18 5
-15 10 3 6 10 10 15 10 5 0 12 -4 15 -10z"/>
<path d="M2902 4358 c-7 -7 -12 -19 -11 -27 0 -10 4 -6 10 8 6 15 14 21 25 17
8 -3 12 -2 9 4 -8 13 -18 13 -33 -2z"/>
<path d="M3050 4366 c0 -2 7 -7 16 -10 8 -3 12 -2 9 4 -6 10 -25 14 -25 6z"/>
<path d="M3190 4366 c0 -2 7 -7 16 -10 8 -3 12 -2 9 4 -6 10 -25 14 -25 6z"/>
<path d="M3267 4363 c6 -4 13 -22 16 -38 4 -27 5 -27 3 4 0 21 -7 36 -16 38
-10 3 -11 2 -3 -4z"/>
<path d="M3352 4358 c-17 -17 -15 -47 4 -55 23 -9 51 23 38 44 -14 22 -27 26
-42 11z m33 -24 c0 -10 -8 -20 -17 -22 -18 -3 -26 27 -11 42 12 11 28 0 28
-20z"/>
<path d="M3418 4363 c7 -3 16 -2 19 1 4 3 -2 6 -13 5 -11 0 -14 -3 -6 -6z"/>
<path d="M3582 4358 c-7 -7 -12 -19 -11 -27 0 -10 4 -6 10 8 6 15 14 21 25 17
8 -3 12 -2 9 4 -8 13 -18 13 -33 -2z"/>
<path d="M3718 4360 c19 -21 15 -52 -5 -48 -11 2 -18 12 -17 26 0 12 -3 22 -8
22 -4 0 -8 -19 -7 -42 0 -24 3 -36 7 -28 4 8 16 15 27 15 26 0 32 37 8 55 -15
12 -16 12 -5 0z"/>
<path d="M3766 4361 c-3 -5 2 -8 12 -7 11 1 18 -7 20 -23 3 -20 0 -23 -19 -18
-16 4 -19 3 -11 -5 15 -15 42 -2 42 20 0 30 -32 54 -44 33z"/>
<path d="M3900 4355 c10 -12 10 -15 -1 -15 -9 0 -10 -3 -3 -8 6 -4 14 -14 17
-22 3 -8 6 -1 6 16 1 21 -5 34 -15 38 -14 5 -15 4 -4 -9z"/>
<path d="M3984 4358 c-4 -7 -3 -8 4 -4 7 4 18 4 24 0 9 -6 5 -10 -12 -15 l-25
-7 28 -1 c29 -1 34 8 15 27 -15 15 -25 15 -34 0z"/>
<path d="M4115 4361 c-3 -6 0 -8 8 -5 10 4 15 -2 15 -20 0 -26 -21 -36 -31
-16 -3 6 -4 5 -3 -2 1 -7 13 -14 25 -16 20 -3 22 0 19 29 -3 33 -21 49 -33 30z"/>
<path d="M2352 4330 c0 -19 2 -27 5 -17 2 9 2 25 0 35 -3 9 -5 1 -5 -18z"/>
<path d="M2472 4330 c0 -19 2 -27 5 -17 2 9 2 25 0 35 -3 9 -5 1 -5 -18z"/>
<path d="M2962 4330 c0 -19 2 -27 5 -17 2 9 2 25 0 35 -3 9 -5 1 -5 -18z"/>
<path d="M3002 4330 c0 -19 2 -27 5 -17 2 9 2 25 0 35 -3 9 -5 1 -5 -18z"/>
<path d="M3033 4320 c0 -25 2 -35 4 -22 2 12 2 32 0 45 -2 12 -4 2 -4 -23z"/>
<path d="M3142 4330 c0 -19 2 -27 5 -17 2 9 2 25 0 35 -3 9 -5 1 -5 -18z"/>
<path d="M3242 4330 c0 -19 2 -27 5 -17 2 9 2 25 0 35 -3 9 -5 1 -5 -18z"/>
<path d="M3642 4330 c0 -19 2 -27 5 -17 2 9 2 25 0 35 -3 9 -5 1 -5 -18z"/>
<path d="M4205 4350 c3 -5 8 -10 11 -10 2 0 4 5 4 10 0 6 -5 10 -11 10 -5 0
-7 -4 -4 -10z"/>
<path d="M2837 4339 c7 -7 15 -10 18 -7 3 3 -2 9 -12 12 -14 6 -15 5 -6 -5z"/>
<path d="M3171 4332 c-1 -25 25 -40 41 -24 8 8 5 9 -10 5 -16 -4 -21 1 -25 19
l-4 23 -2 -23z"/>
<path d="M2590 4321 c0 -10 19 -25 25 -20 1 2 -3 10 -11 17 -8 7 -14 8 -14 3z"/>
<path d="M2870 4322 c0 -6 -8 -13 -17 -15 -16 -4 -16 -5 -1 -6 18 -1 34 16 24
26 -3 4 -6 1 -6 -5z"/>
<path d="M3530 4314 c-17 -9 -20 -14 -9 -14 9 0 22 7 29 15 15 18 13 18 -20
-1z"/>
<path d="M3870 4317 c0 -10 8 -17 18 -17 9 0 13 4 7 8 -5 4 -13 11 -17 16 -5
5 -8 2 -8 -7z"/>
<path d="M3940 4315 c0 -8 4 -15 10 -15 5 0 7 7 4 15 -4 8 -8 15 -10 15 -2 0
-4 -7 -4 -15z"/>
<path d="M4227 4323 c-4 -3 -7 -11 -7 -17 0 -6 5 -5 12 2 6 6 9 14 7 17 -3 3
-9 2 -12 -2z"/>
<path d="M3060 4310 c-9 -6 -10 -10 -3 -10 6 0 15 5 18 10 8 12 4 12 -15 0z"/>
<path d="M3988 4308 c5 -5 16 -8 23 -6 8 3 3 7 -10 11 -17 4 -21 3 -13 -5z"/>
<path d="M4180 4310 c0 -5 5 -10 10 -10 6 0 10 5 10 10 0 6 -4 10 -10 10 -5 0
-10 -4 -10 -10z"/>
<path d="M2388 4303 c6 -2 18 -2 25 0 6 3 1 5 -13 5 -14 0 -19 -2 -12 -5z"/>
<path d="M2518 4303 c7 -3 16 -2 19 1 4 3 -2 6 -13 5 -11 0 -14 -3 -6 -6z"/>
<path d="M2908 4303 c7 -3 16 -2 19 1 4 3 -2 6 -13 5 -11 0 -14 -3 -6 -6z"/>
<path d="M3588 4303 c7 -3 16 -2 19 1 4 3 -2 6 -13 5 -11 0 -14 -3 -6 -6z"/>
<path d="M1740 4280 c0 -11 -4 -20 -10 -20 -17 0 -11 -22 12 -41 27 -24 30
-24 58 6 20 21 21 25 6 31 -9 3 -16 15 -16 25 0 14 -7 19 -25 19 -18 0 -25 -5
-25 -20z m43 -17 c7 -36 -11 -60 -29 -41 -15 16 -7 68 11 68 7 0 15 -12 18
-27z"/>
<path d="M1540 3744 c0 -44 3 -54 13 -46 7 6 30 12 52 14 39 3 40 4 43 46 l3
42 -55 0 -56 0 0 -56z m100 16 c0 -26 -3 -30 -29 -30 -16 0 -36 -3 -45 -6 -13
-5 -16 1 -16 30 l0 36 45 0 c43 0 45 -1 45 -30z"/>
<path d="M1747 3783 c-9 -9 -9 -61 1 -66 4 -3 7 12 7 34 0 21 0 39 -1 39 0 0
-4 -3 -7 -7z"/>
<path d="M1786 3767 c4 -16 1 -33 -6 -42 -8 -10 -9 -15 -1 -15 16 0 24 46 12
67 -9 15 -10 14 -5 -10z"/>
<path d="M2320 3756 c0 -19 3 -37 8 -40 4 -2 6 13 4 35 -5 48 -12 51 -12 5z"/>
<path d="M1917 3763 c-9 -9 -9 -41 1 -46 4 -3 7 8 7 24 0 16 0 29 -1 29 0 0
-4 -3 -7 -7z"/>
<path d="M1980 3740 c0 -16 2 -30 4 -30 2 0 6 14 8 30 3 17 1 30 -4 30 -4 0
-8 -13 -8 -30z"/>
<path d="M2019 3738 c4 -28 6 -29 9 -9 2 13 0 27 -5 32 -6 6 -7 -3 -4 -23z"/>
<path d="M2082 3740 c0 -19 2 -27 5 -17 2 9 2 25 0 35 -3 9 -5 1 -5 -18z"/>
<path d="M2118 3738 c2 -15 5 -28 7 -28 2 0 5 13 7 28 2 17 -1 29 -7 29 -6 0
-9 -12 -7 -29z"/>
<path d="M2187 3763 c-10 -10 -8 -41 3 -48 5 -3 7 0 4 9 -4 10 3 16 23 19 l28
4 -28 2 c-16 0 -25 5 -22 11 7 11 2 13 -8 3z"/>
<path d="M2250 3740 c0 -16 2 -30 4 -30 2 0 6 14 8 30 3 17 1 30 -4 30 -4 0
-8 -13 -8 -30z"/>
<path d="M2285 3760 c3 -5 8 -10 11 -10 2 0 4 5 4 10 0 6 -5 10 -11 10 -5 0
-7 -4 -4 -10z"/>
<path d="M2360 3755 c0 -8 2 -15 4 -15 2 0 13 -3 23 -6 17 -5 17 -5 0 6 -9 6
-15 15 -12 21 4 5 1 9 -4 9 -6 0 -11 -7 -11 -15z"/>
<path d="M1840 3736 c0 -8 4 -17 9 -20 5 -4 7 3 4 14 -6 23 -13 26 -13 6z"/>
<path d="M2162 3730 c0 -14 2 -19 5 -12 2 6 2 18 0 25 -3 6 -5 1 -5 -13z"/>
<path d="M8408 3679 c-16 -9 -18 -27 -18 -154 0 -132 2 -145 19 -155 13 -7
474 -10 1420 -10 1259 0 1401 2 1415 16 13 12 16 41 16 148 0 116 -2 135 -18
149 -17 16 -130 17 -1418 17 -932 -1 -1405 -4 -1416 -11z m969 -124 c2 -6 -9
-11 -24 -10 -30 0 -40 -20 -23 -45 8 -13 13 -13 31 -2 18 11 20 11 17 0 -3 -7
-18 -13 -34 -13 -26 0 -29 4 -32 34 -2 20 2 37 10 43 17 10 50 6 55 -7z m403
0 c11 -13 8 -14 -20 -9 -30 7 -31 5 -28 -21 4 -39 21 -41 56 -5 17 16 35 30
40 30 18 0 34 -29 27 -50 -7 -21 -39 -27 -51 -9 -4 8 -9 8 -17 0 -15 -15 -50
-14 -65 1 -7 7 -12 21 -12 33 0 41 45 60 70 30z m450 -30 c0 -25 -5 -45 -10
-45 -6 0 -10 19 -8 45 4 58 18 58 18 0z m-638 -3 c-2 -18 1 -32 7 -32 6 0 11
8 11 19 0 24 25 45 45 37 22 -8 18 -36 -5 -36 -11 0 -20 -5 -20 -11 0 -6 9 -8
21 -4 14 5 19 3 15 -4 -4 -6 -26 -10 -49 -8 -41 2 -42 3 -45 41 -3 28 0 37 10
34 8 -3 12 -17 10 -36z m673 7 c-4 -11 -1 -26 5 -34 10 -12 9 -15 -3 -15 -14
0 -30 56 -20 73 9 15 24 -5 18 -24z m-835 11 c0 -5 -4 -10 -10 -10 -5 0 -10
-11 -10 -25 0 -14 -4 -25 -10 -25 -5 0 -10 16 -10 35 0 28 4 35 20 35 11 0 20
-4 20 -10z m58 -13 c2 -12 -3 -17 -17 -17 -12 0 -21 -5 -21 -11 0 -6 9 -9 20
-6 11 3 20 1 20 -4 0 -5 -11 -9 -24 -9 -29 0 -44 33 -25 56 16 19 43 14 47 -9z
m70 -15 c3 -31 2 -33 -24 -30 -35 4 -42 25 -12 37 18 8 19 10 5 10 -10 1 -15
6 -12 12 14 22 40 4 43 -29z m398 -2 c2 -28 1 -29 -3 -7 -5 33 -25 31 -34 -4
-7 -24 -7 -24 -8 4 -1 34 -21 36 -21 2 0 -14 -4 -25 -10 -25 -5 0 -10 16 -10
35 0 35 0 35 43 32 40 -3 42 -4 43 -37z m100 0 c1 -27 1 -28 -3 -7 -5 30 -22
37 -24 10 -1 -10 -1 -21 0 -25 0 -5 -3 -8 -9 -8 -5 0 -10 11 -10 25 0 14 -4
25 -10 25 -5 0 -10 -11 -10 -25 0 -14 -4 -25 -10 -25 -5 0 -10 16 -10 35 0 35
0 35 43 32 40 -3 42 -4 43 -37z m45 -20 c5 0 9 11 9 24 0 14 5 28 10 31 6 4
10 -8 10 -30 0 -34 -2 -36 -27 -33 -30 3 -41 27 -27 56 6 13 9 9 12 -15 2 -18
7 -33 13 -33z m95 20 c1 -26 1 -28 -3 -7 -6 34 -33 36 -33 2 0 -14 -4 -25 -10
-25 -10 0 -14 52 -5 62 3 3 16 5 28 4 18 -1 22 -7 23 -36z m110 18 l6 -21 15
24 14 24 -6 -27 c-9 -45 -24 -78 -35 -78 -6 0 -8 10 -5 23 4 12 1 35 -4 50 -6
15 -7 27 -1 27 5 0 12 -10 16 -22z"/>
<path d="M9812 3513 c5 -25 28 -28 28 -4 0 12 -6 21 -16 21 -9 0 -14 -7 -12
-17z"/>
<path d="M9458 3523 c7 -3 16 -2 19 1 4 3 -2 6 -13 5 -11 0 -14 -3 -6 -6z"/>
<path d="M9520 3500 c0 -5 5 -10 10 -10 6 0 10 5 10 10 0 6 -4 10 -10 10 -5 0
-10 -4 -10 -10z"/>
<path d="M2407 3123 c-4 -3 -7 -24 -7 -46 0 -51 6 -45 13 11 5 44 4 46 -6 35z"/>
<path d="M2447 3123 c-4 -3 -7 -24 -7 -46 0 -48 7 -46 11 3 2 19 8 38 14 42 7
5 6 8 -1 8 -6 0 -14 -3 -17 -7z"/>
<path d="M2487 3123 c-4 -3 -7 -24 -7 -46 0 -48 7 -46 11 3 2 19 8 38 14 42 7
5 6 8 -1 8 -6 0 -14 -3 -17 -7z"/>
<path d="M2297 3103 c-10 -10 -8 -33 3 -33 5 0 6 8 3 17 -5 13 -2 15 11 10 10
-4 15 -3 11 3 -7 12 -19 13 -28 3z"/>
<path d="M2363 3103 c-7 -2 -12 -19 -12 -36 2 -28 2 -29 6 -7 3 14 10 31 15
38 11 13 10 13 -9 5z"/>
<path d="M1740 3080 c-18 -16 -21 -23 -12 -32 7 -7 12 -20 12 -30 0 -13 8 -18
25 -18 18 0 25 5 25 20 0 11 7 23 16 27 13 5 12 9 -7 29 -27 29 -30 29 -59 4z
m43 -42 c-3 -16 -11 -28 -18 -28 -17 0 -26 51 -12 68 16 20 37 -7 30 -40z"/>
<path d="M2560 3070 c0 -5 5 -10 10 -10 6 0 10 5 10 10 0 6 -4 10 -10 10 -5 0
-10 -4 -10 -10z"/>
<path d="M2298 3043 c6 -2 18 -2 25 0 6 3 1 5 -13 5 -14 0 -19 -2 -12 -5z"/>
<path d="M2278 3013 c46 -2 118 -2 160 0 42 1 5 3 -83 3 -88 0 -123 -2 -77 -3z"/>
<path d="M2290 2835 c0 -30 5 -55 10 -55 6 0 10 25 10 55 0 30 -4 55 -10 55
-5 0 -10 -25 -10 -55z"/>
<path d="M2210 2840 c0 -13 9 -22 25 -26 14 -3 22 -10 19 -15 -3 -6 -15 -7
-27 -3 -17 5 -19 3 -11 -6 16 -17 48 -9 52 13 3 12 -4 20 -17 24 -12 3 -21 10
-21 15 0 5 10 6 21 3 15 -5 19 -4 15 4 -4 6 -18 11 -32 11 -17 0 -24 -5 -24
-20z"/>
<path d="M2328 2854 c6 -3 12 -21 12 -40 0 -19 5 -34 11 -34 6 0 9 16 7 37 -2
29 -8 38 -23 40 -11 2 -14 0 -7 -3z"/>
<path d="M2385 2850 c-4 -7 2 -9 19 -4 15 3 26 2 26 -4 0 -5 -12 -13 -26 -16
-38 -10 -28 -41 14 -43 32 -1 33 0 30 35 -3 32 -7 37 -30 40 -14 2 -29 -2 -33
-8z m45 -39 c0 -12 -20 -25 -27 -18 -7 7 6 27 18 27 5 0 9 -4 9 -9z"/>
<path d="M2471 2815 l1 -40 8 34 c4 18 14 37 21 42 10 6 7 8 -9 6 -19 -1 -22
-7 -21 -42z"/>
<path d="M2533 2825 c2 -38 4 -40 35 -42 31 -1 32 0 32 38 0 21 -4 39 -10 39
-5 0 -10 -13 -10 -29 0 -53 -32 -46 -43 9 -3 14 -4 8 -4 -15z"/>
<path d="M2625 2850 c-4 -7 2 -9 19 -4 16 4 26 2 26 -4 0 -6 -10 -12 -22 -14
-15 -2 -23 -10 -23 -23 0 -16 7 -20 33 -22 27 -1 32 2 32 22 0 13 -3 30 -6 39
-7 18 -49 22 -59 6z m45 -39 c0 -14 -18 -23 -30 -16 -6 4 -8 11 -5 16 8 12 35
12 35 0z"/>
<path d="M2700 2858 c0 -2 7 -21 14 -43 10 -28 11 -44 4 -52 -7 -9 -7 -13 1
-13 15 0 54 86 48 103 -3 7 -10 -1 -17 -18 l-13 -30 -10 28 c-6 15 -14 27 -19
27 -4 0 -8 -1 -8 -2z"/>
<path d="M2831 2815 c2 -33 3 -35 6 -10 2 17 11 35 20 42 13 10 13 12 -6 10
-18 -1 -21 -7 -20 -42z"/>
<path d="M2890 2852 c0 -6 9 -8 20 -5 11 3 20 1 20 -5 0 -5 -12 -13 -26 -16
-37 -10 -28 -40 14 -44 33 -3 33 -3 30 35 -3 33 -7 38 -30 41 -16 2 -28 -1
-28 -6z m40 -47 c0 -8 -7 -15 -15 -15 -16 0 -20 12 -8 23 11 12 23 8 23 -8z"/>
<path d="M2970 2820 c0 -22 5 -40 10 -40 6 0 10 18 10 40 0 22 -4 40 -10 40
-5 0 -10 -18 -10 -40z"/>
<path d="M1744 2778 c-4 -7 -3 -8 4 -4 8 5 12 -4 12 -28 0 -20 5 -36 10 -36 6
0 10 18 10 40 0 40 -19 55 -36 28z"/>
<path d="M2210 2547 c0 -20 3 -38 8 -40 9 -6 8 61 -2 70 -3 3 -6 -10 -6 -30z"/>
<path d="M2251 2540 c1 -38 2 -41 8 -16 8 39 24 39 32 1 l7 -30 1 33 c1 29 -3
34 -25 31 -4 0 -11 5 -15 13 -6 8 -8 -4 -8 -32z"/>
<path d="M2869 2575 c-7 -7 2 -75 10 -75 4 0 5 18 3 40 -4 41 -5 44 -13 35z"/>
<path d="M2357 2563 c-10 -10 -8 -33 3 -33 5 0 6 8 3 17 -5 13 -2 15 11 10 10
-4 15 -3 11 3 -7 12 -19 13 -28 3z"/>
<path d="M2570 2560 c-9 -6 -10 -10 -3 -10 6 0 15 5 18 10 8 12 4 12 -15 0z"/>
<path d="M2698 2560 c17 -20 15 -48 -5 -54 -14 -4 -14 -4 2 -3 26 3 31 40 8
57 -15 12 -16 12 -5 0z"/>
<path d="M2740 2555 c-17 -20 -8 -49 15 -52 16 -1 16 -1 3 3 -21 6 -24 34 -6
52 7 7 9 12 6 12 -3 0 -11 -7 -18 -15z"/>
<path d="M2322 2530 c0 -19 2 -27 5 -17 2 9 2 25 0 35 -3 9 -5 1 -5 -18z"/>
<path d="M2442 2530 c0 -19 2 -27 5 -17 2 9 2 25 0 35 -3 9 -5 1 -5 -18z"/>
<path d="M2470 2545 c0 -8 4 -15 10 -15 5 0 7 7 4 15 -4 8 -8 15 -10 15 -2 0
-4 -7 -4 -15z"/>
<path d="M2592 2545 c-7 -8 -8 -15 -3 -15 5 0 12 -8 14 -17 3 -10 5 -3 6 15 1
36 1 37 -17 17z"/>
<path d="M2660 2520 c0 -22 2 -40 4 -40 2 0 6 18 8 40 2 22 0 40 -4 40 -5 0
-8 -18 -8 -40z"/>
<path d="M2800 2551 c0 -10 19 -25 25 -20 1 2 -3 10 -11 17 -8 7 -14 8 -14 3z"/>
<path d="M2380 2522 c0 -6 -8 -13 -17 -15 -16 -4 -16 -5 -1 -6 18 -1 34 16 24
26 -3 4 -6 1 -6 -5z"/>
<path d="M2560 2521 c0 -10 19 -25 25 -20 1 2 -3 10 -11 17 -8 7 -14 8 -14 3z"/>
<path d="M2825 2510 c-16 -7 -17 -9 -3 -9 9 -1 20 4 23 9 7 11 7 11 -20 0z"/>
<path d="M2478 2503 c6 -2 18 -2 25 0 6 3 1 5 -13 5 -14 0 -19 -2 -12 -5z"/>
<path d="M1740 2482 c0 -10 -5 -23 -11 -29 -8 -8 -6 -17 7 -32 24 -27 35 -26
63 3 19 20 20 24 7 29 -9 4 -16 16 -16 27 0 15 -7 20 -25 20 -17 0 -25 -5 -25
-18z m43 -19 c7 -36 -11 -60 -29 -41 -15 16 -7 68 11 68 7 0 15 -12 18 -27z"/>
<path d="M1540 1944 c0 -44 3 -54 13 -46 7 6 30 12 52 14 39 3 40 4 43 46 l3
42 -55 0 -56 0 0 -56z m98 14 c-3 -31 -6 -33 -45 -36 l-43 -3 0 35 c0 36 0 36
46 36 45 0 45 0 42 -32z"/>
<path d="M1747 1983 c-9 -9 -9 -61 1 -66 4 -3 7 12 7 34 0 21 0 39 -1 39 0 0
-4 -3 -7 -7z"/>
<path d="M1785 1950 c0 -34 1 -38 9 -21 5 13 5 29 0 42 -8 17 -9 13 -9 -21z"/>
<path d="M2320 1952 c0 -17 3 -33 8 -35 9 -6 8 50 -1 60 -4 3 -7 -8 -7 -25z"/>
<path d="M1917 1963 c-9 -9 -9 -41 1 -46 4 -3 7 8 7 24 0 16 0 29 -1 29 0 0
-4 -3 -7 -7z"/>
<path d="M1982 1940 c0 -19 2 -27 5 -17 2 9 2 25 0 35 -3 9 -5 1 -5 -18z"/>
<path d="M2019 1938 c4 -28 6 -29 9 -9 2 13 0 27 -5 32 -6 6 -7 -3 -4 -23z"/>
<path d="M2082 1940 c0 -19 2 -27 5 -17 2 9 2 25 0 35 -3 9 -5 1 -5 -18z"/>
<path d="M2119 1938 c4 -28 6 -29 9 -9 2 13 0 27 -5 32 -6 6 -7 -3 -4 -23z"/>
<path d="M2187 1963 c-9 -9 -9 -41 1 -46 4 -3 7 8 7 24 0 16 0 29 -1 29 0 0
-4 -3 -7 -7z"/>
<path d="M2220 1955 c0 -8 4 -15 10 -15 5 0 7 7 4 15 -4 8 -8 15 -10 15 -2 0
-4 -7 -4 -15z"/>
<path d="M2250 1940 c0 -16 2 -30 4 -30 2 0 6 14 8 30 3 17 1 30 -4 30 -4 0
-8 -13 -8 -30z"/>
<path d="M2285 1960 c3 -5 8 -10 11 -10 2 0 4 5 4 10 0 6 -5 10 -11 10 -5 0
-7 -4 -4 -10z"/>
<path d="M2360 1955 c0 -8 2 -15 4 -15 2 0 13 -3 23 -6 17 -5 17 -5 0 6 -9 6
-15 15 -12 21 4 5 1 9 -4 9 -6 0 -11 -7 -11 -15z"/>
<path d="M1840 1936 c0 -8 4 -17 9 -20 5 -4 7 3 4 14 -6 23 -13 26 -13 6z"/>
<path d="M2162 1930 c0 -14 2 -19 5 -12 2 6 2 18 0 25 -3 6 -5 1 -5 -13z"/>
</g>
</svg>
